<mxfile host="Electron" modified="2024-05-22T09:42:48.239Z" agent="Mozilla/5.0 (X11; Linux x86_64) AppleWebKit/537.36 (KHTML, like Gecko) draw.io/24.4.0 Chrome/120.0.6099.109 Electron/28.1.0 Safari/537.36" etag="6SkG8Y2tYRGRQVWaj_Os" version="24.4.0" type="device">
  <diagram id="R2lEEEUBdFMjLlhIrx00" name="Page-1">
    <mxGraphModel dx="1541" dy="1104" grid="1" gridSize="10" guides="1" tooltips="1" connect="1" arrows="1" fold="1" page="1" pageScale="1" pageWidth="850" pageHeight="1100" math="0" shadow="0" extFonts="Permanent Marker^https://fonts.googleapis.com/css?family=Permanent+Marker">
      <root>
        <mxCell id="0" />
        <mxCell id="1" parent="0" />
        <mxCell id="X9Rjx0ZmzIJkDOcPhMr0-2" value="" style="endArrow=none;html=1;rounded=0;fontSize=12;startSize=8;endSize=8;curved=1;entryX=0.5;entryY=1;entryDx=0;entryDy=0;exitX=0.5;exitY=0;exitDx=0;exitDy=0;" parent="1" target="X9Rjx0ZmzIJkDOcPhMr0-139" edge="1" source="X9Rjx0ZmzIJkDOcPhMr0-27">
          <mxGeometry width="50" height="50" relative="1" as="geometry">
            <mxPoint x="1915" y="595" as="sourcePoint" />
            <mxPoint x="1915" y="475" as="targetPoint" />
          </mxGeometry>
        </mxCell>
        <mxCell id="X9Rjx0ZmzIJkDOcPhMr0-6" value="" style="endArrow=none;html=1;rounded=0;fontSize=12;startSize=8;endSize=8;curved=1;exitX=0;exitY=0.5;exitDx=0;exitDy=0;entryX=1;entryY=0.5;entryDx=0;entryDy=0;" parent="1" source="X9Rjx0ZmzIJkDOcPhMr0-147" edge="1" target="f4H1i3df-mybFZjiYUSQ-20">
          <mxGeometry width="50" height="50" relative="1" as="geometry">
            <mxPoint x="2200" y="440" as="sourcePoint" />
            <mxPoint x="2150" y="440" as="targetPoint" />
          </mxGeometry>
        </mxCell>
        <mxCell id="X9Rjx0ZmzIJkDOcPhMr0-11" style="edgeStyle=none;curved=1;rounded=0;orthogonalLoop=1;jettySize=auto;html=1;exitX=1;exitY=1;exitDx=0;exitDy=0;fontSize=12;startSize=8;endSize=8;" parent="1" edge="1">
          <mxGeometry relative="1" as="geometry">
            <mxPoint x="2495" y="615" as="sourcePoint" />
            <mxPoint x="2495" y="615" as="targetPoint" />
          </mxGeometry>
        </mxCell>
        <mxCell id="X9Rjx0ZmzIJkDOcPhMr0-14" value="work on" style="rhombus;whiteSpace=wrap;html=1;fontSize=16;" parent="1" vertex="1">
          <mxGeometry x="1820" y="829.26" width="80" height="80" as="geometry" />
        </mxCell>
        <mxCell id="X9Rjx0ZmzIJkDOcPhMr0-15" value="" style="endArrow=none;html=1;rounded=0;fontSize=12;startSize=8;endSize=8;curved=1;entryX=0;entryY=0.5;entryDx=0;entryDy=0;" parent="1" target="X9Rjx0ZmzIJkDOcPhMr0-114" edge="1">
          <mxGeometry width="50" height="50" relative="1" as="geometry">
            <mxPoint x="1210" y="875" as="sourcePoint" />
            <mxPoint x="1350" y="875" as="targetPoint" />
          </mxGeometry>
        </mxCell>
        <mxCell id="X9Rjx0ZmzIJkDOcPhMr0-16" value="have" style="rhombus;whiteSpace=wrap;html=1;fontSize=16;" parent="1" vertex="1">
          <mxGeometry x="1170" y="835" width="80" height="80" as="geometry" />
        </mxCell>
        <mxCell id="X9Rjx0ZmzIJkDOcPhMr0-17" value="" style="endArrow=none;html=1;rounded=0;fontSize=12;startSize=8;endSize=8;curved=1;exitX=0.5;exitY=0;exitDx=0;exitDy=0;entryX=0.5;entryY=1;entryDx=0;entryDy=0;" parent="1" source="X9Rjx0ZmzIJkDOcPhMr0-16" target="X9Rjx0ZmzIJkDOcPhMr0-122" edge="1">
          <mxGeometry width="50" height="50" relative="1" as="geometry">
            <mxPoint x="1180" y="775" as="sourcePoint" />
            <mxPoint x="1210" y="725" as="targetPoint" />
          </mxGeometry>
        </mxCell>
        <mxCell id="X9Rjx0ZmzIJkDOcPhMr0-27" value="have" style="rhombus;whiteSpace=wrap;html=1;fontSize=16;" parent="1" vertex="1">
          <mxGeometry x="1877.5" y="575" width="80" height="80" as="geometry" />
        </mxCell>
        <mxCell id="X9Rjx0ZmzIJkDOcPhMr0-28" value="" style="endArrow=none;html=1;rounded=0;fontSize=12;startSize=8;endSize=8;curved=1;entryX=0.5;entryY=1;entryDx=0;entryDy=0;exitX=0.5;exitY=0;exitDx=0;exitDy=0;" parent="1" source="X9Rjx0ZmzIJkDOcPhMr0-160" target="X9Rjx0ZmzIJkDOcPhMr0-27" edge="1">
          <mxGeometry width="50" height="50" relative="1" as="geometry">
            <mxPoint x="1917.5" y="735" as="sourcePoint" />
            <mxPoint x="1927.5" y="695" as="targetPoint" />
          </mxGeometry>
        </mxCell>
        <mxCell id="X9Rjx0ZmzIJkDOcPhMr0-29" value="" style="endArrow=none;html=1;rounded=0;fontSize=12;startSize=8;endSize=8;curved=1;entryX=0.5;entryY=1;entryDx=0;entryDy=0;" parent="1" target="X9Rjx0ZmzIJkDOcPhMr0-91" edge="1">
          <mxGeometry width="50" height="50" relative="1" as="geometry">
            <mxPoint x="3477.5" y="210" as="sourcePoint" />
            <mxPoint x="3477.5" y="140" as="targetPoint" />
          </mxGeometry>
        </mxCell>
        <mxCell id="X9Rjx0ZmzIJkDOcPhMr0-30" value="" style="rhombus;whiteSpace=wrap;html=1;fontSize=16;" parent="1" vertex="1">
          <mxGeometry x="3437.5" y="190" width="80" height="80" as="geometry" />
        </mxCell>
        <mxCell id="X9Rjx0ZmzIJkDOcPhMr0-31" value="" style="endArrow=none;html=1;rounded=0;fontSize=12;startSize=8;endSize=8;curved=1;exitX=1;exitY=0.5;exitDx=0;exitDy=0;" parent="1" source="X9Rjx0ZmzIJkDOcPhMr0-30" edge="1">
          <mxGeometry width="50" height="50" relative="1" as="geometry">
            <mxPoint x="3552.5" y="260" as="sourcePoint" />
            <mxPoint x="3732.5" y="230" as="targetPoint" />
          </mxGeometry>
        </mxCell>
        <mxCell id="X9Rjx0ZmzIJkDOcPhMr0-32" value="" style="endArrow=none;html=1;rounded=0;fontSize=12;startSize=8;endSize=8;curved=1;entryX=0;entryY=0.5;entryDx=0;entryDy=0;" parent="1" target="X9Rjx0ZmzIJkDOcPhMr0-30" edge="1">
          <mxGeometry width="50" height="50" relative="1" as="geometry">
            <mxPoint x="3212.5" y="230" as="sourcePoint" />
            <mxPoint x="3362.5" y="220" as="targetPoint" />
          </mxGeometry>
        </mxCell>
        <mxCell id="X9Rjx0ZmzIJkDOcPhMr0-33" value="" style="endArrow=none;html=1;rounded=0;fontSize=12;startSize=8;endSize=8;curved=1;exitX=0.5;exitY=0.083;exitDx=0;exitDy=0;exitPerimeter=0;" parent="1" source="X9Rjx0ZmzIJkDOcPhMr0-34" edge="1">
          <mxGeometry width="50" height="50" relative="1" as="geometry">
            <mxPoint x="3212.5" y="310" as="sourcePoint" />
            <mxPoint x="3212.5" y="230" as="targetPoint" />
          </mxGeometry>
        </mxCell>
        <mxCell id="X9Rjx0ZmzIJkDOcPhMr0-34" value="body_parts" style="rounded=0;whiteSpace=wrap;html=1;fontSize=16;" parent="1" vertex="1">
          <mxGeometry x="3152.5" y="315" width="120" height="60" as="geometry" />
        </mxCell>
        <mxCell id="X9Rjx0ZmzIJkDOcPhMr0-35" value="" style="endArrow=none;html=1;rounded=0;fontSize=12;startSize=8;endSize=8;curved=1;exitX=0.75;exitY=0;exitDx=0;exitDy=0;" parent="1" source="X9Rjx0ZmzIJkDOcPhMr0-34" target="X9Rjx0ZmzIJkDOcPhMr0-36" edge="1">
          <mxGeometry width="50" height="50" relative="1" as="geometry">
            <mxPoint x="3237.5" y="295" as="sourcePoint" />
            <mxPoint x="3267.5" y="275" as="targetPoint" />
          </mxGeometry>
        </mxCell>
        <mxCell id="X9Rjx0ZmzIJkDOcPhMr0-36" value="bd_description" style="text;html=1;strokeColor=none;fillColor=none;align=center;verticalAlign=middle;whiteSpace=wrap;rounded=0;fontSize=16;" parent="1" vertex="1">
          <mxGeometry x="3237.5" y="259.9999999999998" width="60" height="30" as="geometry" />
        </mxCell>
        <mxCell id="X9Rjx0ZmzIJkDOcPhMr0-37" value="" style="endArrow=none;html=1;rounded=0;fontSize=12;startSize=8;endSize=8;curved=1;entryX=0.222;entryY=-0.008;entryDx=0;entryDy=0;entryPerimeter=0;exitDx=0;exitDy=0;" parent="1" source="X9Rjx0ZmzIJkDOcPhMr0-41" target="X9Rjx0ZmzIJkDOcPhMr0-34" edge="1">
          <mxGeometry width="50" height="50" relative="1" as="geometry">
            <mxPoint x="3157.5" y="295" as="sourcePoint" />
            <mxPoint x="3122.5" y="240" as="targetPoint" />
          </mxGeometry>
        </mxCell>
        <mxCell id="X9Rjx0ZmzIJkDOcPhMr0-38" value="bd_id" style="text;html=1;strokeColor=none;fillColor=none;align=center;verticalAlign=middle;whiteSpace=wrap;rounded=0;fontSize=16;" parent="1" vertex="1">
          <mxGeometry x="3112.5" y="260" width="60" height="30" as="geometry" />
        </mxCell>
        <mxCell id="X9Rjx0ZmzIJkDOcPhMr0-39" value="" style="endArrow=none;html=1;rounded=0;fontSize=12;startSize=8;endSize=8;curved=1;entryX=0;entryY=0.5;entryDx=0;entryDy=0;" parent="1" target="X9Rjx0ZmzIJkDOcPhMr0-34" edge="1">
          <mxGeometry width="50" height="50" relative="1" as="geometry">
            <mxPoint x="3092.5" y="340" as="sourcePoint" />
            <mxPoint x="3362.5" y="375" as="targetPoint" />
          </mxGeometry>
        </mxCell>
        <mxCell id="X9Rjx0ZmzIJkDOcPhMr0-40" value="bid_provider&amp;nbsp;" style="text;html=1;strokeColor=none;fillColor=none;align=center;verticalAlign=middle;whiteSpace=wrap;rounded=0;fontSize=16;" parent="1" vertex="1">
          <mxGeometry x="3020" y="315" width="60" height="30" as="geometry" />
        </mxCell>
        <mxCell id="X9Rjx0ZmzIJkDOcPhMr0-41" value="" style="shape=waypoint;sketch=0;fillStyle=solid;size=6;pointerEvents=1;points=[];fillColor=none;resizable=0;rotatable=0;perimeter=centerPerimeter;snapToPoint=1;fontSize=16;" parent="1" vertex="1">
          <mxGeometry x="3147.5" y="285" width="20" height="20" as="geometry" />
        </mxCell>
        <mxCell id="X9Rjx0ZmzIJkDOcPhMr0-42" value="" style="endArrow=none;html=1;rounded=0;fontSize=12;startSize=8;endSize=8;curved=1;" parent="1" edge="1">
          <mxGeometry width="50" height="50" relative="1" as="geometry">
            <mxPoint x="3732.5" y="320" as="sourcePoint" />
            <mxPoint x="3732.5" y="230" as="targetPoint" />
          </mxGeometry>
        </mxCell>
        <mxCell id="X9Rjx0ZmzIJkDOcPhMr0-43" value="mechanical_parts" style="rounded=0;whiteSpace=wrap;html=1;fontSize=16;" parent="1" vertex="1">
          <mxGeometry x="3657.5" y="315" width="140" height="60" as="geometry" />
        </mxCell>
        <mxCell id="X9Rjx0ZmzIJkDOcPhMr0-44" value="" style="endArrow=none;html=1;rounded=0;fontSize=12;startSize=8;endSize=8;curved=1;entryX=0.75;entryY=0;entryDx=0;entryDy=0;" parent="1" source="X9Rjx0ZmzIJkDOcPhMr0-48" target="X9Rjx0ZmzIJkDOcPhMr0-43" edge="1">
          <mxGeometry width="50" height="50" relative="1" as="geometry">
            <mxPoint x="3832.5" y="290" as="sourcePoint" />
            <mxPoint x="3912.5" y="420" as="targetPoint" />
          </mxGeometry>
        </mxCell>
        <mxCell id="X9Rjx0ZmzIJkDOcPhMr0-45" value="mp_id" style="text;html=1;strokeColor=none;fillColor=none;align=center;verticalAlign=middle;whiteSpace=wrap;rounded=0;fontSize=16;" parent="1" vertex="1">
          <mxGeometry x="3802.5" y="260" width="60" height="30" as="geometry" />
        </mxCell>
        <mxCell id="X9Rjx0ZmzIJkDOcPhMr0-46" value="mp_description" style="text;html=1;strokeColor=none;fillColor=none;align=center;verticalAlign=middle;whiteSpace=wrap;rounded=0;fontSize=16;" parent="1" vertex="1">
          <mxGeometry x="3632.5" y="260" width="60" height="30" as="geometry" />
        </mxCell>
        <mxCell id="X9Rjx0ZmzIJkDOcPhMr0-47" value="" style="endArrow=none;html=1;rounded=0;fontSize=12;startSize=8;endSize=8;curved=1;entryDx=0;entryDy=0;" parent="1" target="X9Rjx0ZmzIJkDOcPhMr0-48" edge="1">
          <mxGeometry width="50" height="50" relative="1" as="geometry">
            <mxPoint x="3832.5" y="290" as="sourcePoint" />
            <mxPoint x="3762.5" y="315" as="targetPoint" />
          </mxGeometry>
        </mxCell>
        <mxCell id="X9Rjx0ZmzIJkDOcPhMr0-48" value="" style="shape=waypoint;sketch=0;fillStyle=solid;size=6;pointerEvents=1;points=[];fillColor=none;resizable=0;rotatable=0;perimeter=centerPerimeter;snapToPoint=1;fontSize=16;" parent="1" vertex="1">
          <mxGeometry x="3822.5" y="280" width="20" height="20" as="geometry" />
        </mxCell>
        <mxCell id="X9Rjx0ZmzIJkDOcPhMr0-49" value="" style="endArrow=none;html=1;rounded=0;fontSize=12;startSize=8;endSize=8;curved=1;entryX=0.25;entryY=0;entryDx=0;entryDy=0;exitX=0.5;exitY=1;exitDx=0;exitDy=0;" parent="1" source="X9Rjx0ZmzIJkDOcPhMr0-46" target="X9Rjx0ZmzIJkDOcPhMr0-43" edge="1">
          <mxGeometry width="50" height="50" relative="1" as="geometry">
            <mxPoint x="3662.5" y="290" as="sourcePoint" />
            <mxPoint x="3662.5" y="270" as="targetPoint" />
          </mxGeometry>
        </mxCell>
        <mxCell id="X9Rjx0ZmzIJkDOcPhMr0-50" value="" style="endArrow=none;html=1;rounded=0;fontSize=12;startSize=8;endSize=8;curved=1;entryX=0.537;entryY=0.978;entryDx=0;entryDy=0;entryPerimeter=0;" parent="1" target="X9Rjx0ZmzIJkDOcPhMr0-43" edge="1">
          <mxGeometry width="50" height="50" relative="1" as="geometry">
            <mxPoint x="3732.5" y="430" as="sourcePoint" />
            <mxPoint x="3732.5" y="380" as="targetPoint" />
          </mxGeometry>
        </mxCell>
        <mxCell id="X9Rjx0ZmzIJkDOcPhMr0-51" value="" style="rhombus;whiteSpace=wrap;html=1;fontSize=16;" parent="1" vertex="1">
          <mxGeometry x="3692.5" y="430" width="80" height="80" as="geometry" />
        </mxCell>
        <mxCell id="X9Rjx0ZmzIJkDOcPhMr0-52" value="" style="endArrow=none;html=1;rounded=0;fontSize=12;startSize=8;endSize=8;curved=1;entryX=0.5;entryY=1;entryDx=0;entryDy=0;exitX=0.5;exitY=0;exitDx=0;exitDy=0;" parent="1" source="X9Rjx0ZmzIJkDOcPhMr0-53" target="X9Rjx0ZmzIJkDOcPhMr0-51" edge="1">
          <mxGeometry width="50" height="50" relative="1" as="geometry">
            <mxPoint x="3737.08" y="610" as="sourcePoint" />
            <mxPoint x="3737.08" y="550" as="targetPoint" />
          </mxGeometry>
        </mxCell>
        <mxCell id="X9Rjx0ZmzIJkDOcPhMr0-53" value="intern_part_detail" style="rounded=0;whiteSpace=wrap;html=1;fontSize=16;" parent="1" vertex="1">
          <mxGeometry x="3667.5" y="600" width="130" height="60" as="geometry" />
        </mxCell>
        <mxCell id="X9Rjx0ZmzIJkDOcPhMr0-54" value="" style="endArrow=none;html=1;rounded=0;fontSize=12;startSize=8;endSize=8;curved=1;entryX=0.25;entryY=0;entryDx=0;entryDy=0;exitX=0.5;exitY=1;exitDx=0;exitDy=0;" parent="1" source="X9Rjx0ZmzIJkDOcPhMr0-55" target="X9Rjx0ZmzIJkDOcPhMr0-53" edge="1">
          <mxGeometry width="50" height="50" relative="1" as="geometry">
            <mxPoint x="3662.5" y="570" as="sourcePoint" />
            <mxPoint x="3627.5" y="540" as="targetPoint" />
          </mxGeometry>
        </mxCell>
        <mxCell id="X9Rjx0ZmzIJkDOcPhMr0-55" value="lenght" style="text;html=1;strokeColor=none;fillColor=none;align=center;verticalAlign=middle;whiteSpace=wrap;rounded=0;fontSize=16;" parent="1" vertex="1">
          <mxGeometry x="3632.5" y="540" width="60" height="30" as="geometry" />
        </mxCell>
        <mxCell id="X9Rjx0ZmzIJkDOcPhMr0-56" value="" style="endArrow=none;html=1;rounded=0;fontSize=12;startSize=8;endSize=8;curved=1;" parent="1" target="X9Rjx0ZmzIJkDOcPhMr0-61" edge="1">
          <mxGeometry width="50" height="50" relative="1" as="geometry">
            <mxPoint x="3782.5" y="600" as="sourcePoint" />
            <mxPoint x="3808.214285714286" y="580" as="targetPoint" />
          </mxGeometry>
        </mxCell>
        <mxCell id="X9Rjx0ZmzIJkDOcPhMr0-57" value="" style="endArrow=none;html=1;rounded=0;fontSize=12;startSize=8;endSize=8;curved=1;exitX=0;exitY=0.5;exitDx=0;exitDy=0;" parent="1" source="X9Rjx0ZmzIJkDOcPhMr0-53" target="X9Rjx0ZmzIJkDOcPhMr0-58" edge="1">
          <mxGeometry width="50" height="50" relative="1" as="geometry">
            <mxPoint x="3632.5" y="640" as="sourcePoint" />
            <mxPoint x="3677.5" y="630" as="targetPoint" />
          </mxGeometry>
        </mxCell>
        <mxCell id="X9Rjx0ZmzIJkDOcPhMr0-58" value="height" style="text;html=1;strokeColor=none;fillColor=none;align=center;verticalAlign=middle;whiteSpace=wrap;rounded=0;fontSize=16;" parent="1" vertex="1">
          <mxGeometry x="3577.5" y="595" width="60" height="30" as="geometry" />
        </mxCell>
        <mxCell id="X9Rjx0ZmzIJkDOcPhMr0-59" value="" style="endArrow=none;html=1;rounded=0;fontSize=12;startSize=8;endSize=8;curved=1;exitX=1;exitY=0.5;exitDx=0;exitDy=0;" parent="1" source="X9Rjx0ZmzIJkDOcPhMr0-53" target="X9Rjx0ZmzIJkDOcPhMr0-60" edge="1">
          <mxGeometry width="50" height="50" relative="1" as="geometry">
            <mxPoint x="3812.5" y="630" as="sourcePoint" />
            <mxPoint x="3842.5" y="650" as="targetPoint" />
          </mxGeometry>
        </mxCell>
        <mxCell id="X9Rjx0ZmzIJkDOcPhMr0-60" value="weight" style="text;html=1;strokeColor=none;fillColor=none;align=center;verticalAlign=middle;whiteSpace=wrap;rounded=0;fontSize=16;" parent="1" vertex="1">
          <mxGeometry x="3822.5" y="650" width="60" height="30" as="geometry" />
        </mxCell>
        <mxCell id="X9Rjx0ZmzIJkDOcPhMr0-61" value="necessary_tools" style="text;html=1;strokeColor=none;fillColor=none;align=center;verticalAlign=middle;whiteSpace=wrap;rounded=0;fontSize=16;" parent="1" vertex="1">
          <mxGeometry x="3752.5" y="550" width="130" height="30" as="geometry" />
        </mxCell>
        <mxCell id="X9Rjx0ZmzIJkDOcPhMr0-62" value="" style="endArrow=none;html=1;rounded=0;fontSize=12;startSize=8;endSize=8;curved=1;entryX=0.5;entryY=1;entryDx=0;entryDy=0;" parent="1" target="X9Rjx0ZmzIJkDOcPhMr0-34" edge="1">
          <mxGeometry width="50" height="50" relative="1" as="geometry">
            <mxPoint x="3212.5" y="430" as="sourcePoint" />
            <mxPoint x="3212.5" y="380" as="targetPoint" />
          </mxGeometry>
        </mxCell>
        <mxCell id="X9Rjx0ZmzIJkDOcPhMr0-63" value="" style="rhombus;whiteSpace=wrap;html=1;fontSize=16;" parent="1" vertex="1">
          <mxGeometry x="3172.5" y="430" width="80" height="80" as="geometry" />
        </mxCell>
        <mxCell id="X9Rjx0ZmzIJkDOcPhMr0-64" value="" style="endArrow=none;html=1;rounded=0;fontSize=12;startSize=8;endSize=8;curved=1;entryX=0.5;entryY=1;entryDx=0;entryDy=0;" parent="1" source="X9Rjx0ZmzIJkDOcPhMr0-74" target="X9Rjx0ZmzIJkDOcPhMr0-63" edge="1">
          <mxGeometry width="50" height="50" relative="1" as="geometry">
            <mxPoint x="3215" y="610" as="sourcePoint" />
            <mxPoint x="3215" y="540" as="targetPoint" />
          </mxGeometry>
        </mxCell>
        <mxCell id="X9Rjx0ZmzIJkDOcPhMr0-65" value="" style="endArrow=none;html=1;rounded=0;fontSize=12;startSize=8;endSize=8;curved=1;exitX=1;exitY=0.25;exitDx=0;exitDy=0;entryX=0.5;entryY=1;entryDx=0;entryDy=0;" parent="1" source="X9Rjx0ZmzIJkDOcPhMr0-74" target="X9Rjx0ZmzIJkDOcPhMr0-66" edge="1">
          <mxGeometry width="50" height="50" relative="1" as="geometry">
            <mxPoint x="3240" y="600" as="sourcePoint" />
            <mxPoint x="3270" y="570" as="targetPoint" />
          </mxGeometry>
        </mxCell>
        <mxCell id="X9Rjx0ZmzIJkDOcPhMr0-66" value="height" style="text;html=1;strokeColor=none;fillColor=none;align=center;verticalAlign=middle;whiteSpace=wrap;rounded=0;fontSize=16;" parent="1" vertex="1">
          <mxGeometry x="3270" y="540" width="60" height="30" as="geometry" />
        </mxCell>
        <mxCell id="X9Rjx0ZmzIJkDOcPhMr0-67" value="" style="endArrow=none;html=1;rounded=0;fontSize=12;startSize=8;endSize=8;curved=1;entryX=0;entryY=0.25;entryDx=0;entryDy=0;exitX=0.5;exitY=1;exitDx=0;exitDy=0;" parent="1" source="X9Rjx0ZmzIJkDOcPhMr0-68" target="X9Rjx0ZmzIJkDOcPhMr0-74" edge="1">
          <mxGeometry width="50" height="50" relative="1" as="geometry">
            <mxPoint x="3110" y="590" as="sourcePoint" />
            <mxPoint x="3140" y="590" as="targetPoint" />
          </mxGeometry>
        </mxCell>
        <mxCell id="X9Rjx0ZmzIJkDOcPhMr0-68" value="lenght" style="text;html=1;strokeColor=none;fillColor=none;align=center;verticalAlign=middle;whiteSpace=wrap;rounded=0;fontSize=16;" parent="1" vertex="1">
          <mxGeometry x="3080" y="540" width="60" height="30" as="geometry" />
        </mxCell>
        <mxCell id="X9Rjx0ZmzIJkDOcPhMr0-69" value="" style="endArrow=none;html=1;rounded=0;fontSize=12;startSize=8;endSize=8;curved=1;exitX=1;exitY=0.75;exitDx=0;exitDy=0;" parent="1" source="X9Rjx0ZmzIJkDOcPhMr0-74" target="X9Rjx0ZmzIJkDOcPhMr0-70" edge="1">
          <mxGeometry width="50" height="50" relative="1" as="geometry">
            <mxPoint x="3277.5" y="650" as="sourcePoint" />
            <mxPoint x="3300" y="670" as="targetPoint" />
          </mxGeometry>
        </mxCell>
        <mxCell id="X9Rjx0ZmzIJkDOcPhMr0-70" value="thickness" style="text;html=1;strokeColor=none;fillColor=none;align=center;verticalAlign=middle;whiteSpace=wrap;rounded=0;fontSize=16;" parent="1" vertex="1">
          <mxGeometry x="3312.5" y="580" width="60" height="30" as="geometry" />
        </mxCell>
        <mxCell id="X9Rjx0ZmzIJkDOcPhMr0-71" value="" style="endArrow=none;html=1;rounded=0;fontSize=12;startSize=8;endSize=8;curved=1;entryX=0;entryY=0.75;entryDx=0;entryDy=0;exitX=0.5;exitY=0;exitDx=0;exitDy=0;" parent="1" source="X9Rjx0ZmzIJkDOcPhMr0-72" target="X9Rjx0ZmzIJkDOcPhMr0-74" edge="1">
          <mxGeometry width="50" height="50" relative="1" as="geometry">
            <mxPoint x="3100" y="670" as="sourcePoint" />
            <mxPoint x="3107.5" y="660" as="targetPoint" />
          </mxGeometry>
        </mxCell>
        <mxCell id="X9Rjx0ZmzIJkDOcPhMr0-72" value="model" style="text;html=1;strokeColor=none;fillColor=none;align=center;verticalAlign=middle;whiteSpace=wrap;rounded=0;fontSize=16;" parent="1" vertex="1">
          <mxGeometry x="3080" y="630" width="60" height="30" as="geometry" />
        </mxCell>
        <mxCell id="X9Rjx0ZmzIJkDOcPhMr0-73" value="" style="endArrow=none;html=1;rounded=0;fontSize=12;startSize=8;endSize=8;curved=1;entryX=0.5;entryY=1;entryDx=0;entryDy=0;" parent="1" target="X9Rjx0ZmzIJkDOcPhMr0-74" edge="1">
          <mxGeometry width="50" height="50" relative="1" as="geometry">
            <mxPoint x="3215" y="610" as="sourcePoint" />
            <mxPoint x="3215" y="540" as="targetPoint" />
          </mxGeometry>
        </mxCell>
        <mxCell id="X9Rjx0ZmzIJkDOcPhMr0-74" value="parts_detail" style="rounded=0;whiteSpace=wrap;html=1;fontSize=16;" parent="1" vertex="1">
          <mxGeometry x="3152.5" y="580" width="120" height="60" as="geometry" />
        </mxCell>
        <mxCell id="X9Rjx0ZmzIJkDOcPhMr0-75" value="" style="endArrow=none;html=1;rounded=0;fontSize=12;startSize=8;endSize=8;curved=1;entryX=0.5;entryY=1;entryDx=0;entryDy=0;" parent="1" target="X9Rjx0ZmzIJkDOcPhMr0-74" edge="1">
          <mxGeometry width="50" height="50" relative="1" as="geometry">
            <mxPoint x="3212.5" y="790" as="sourcePoint" />
            <mxPoint x="3202.5" y="740" as="targetPoint" />
          </mxGeometry>
        </mxCell>
        <mxCell id="X9Rjx0ZmzIJkDOcPhMr0-76" value="" style="endArrow=none;html=1;rounded=0;fontSize=12;startSize=8;endSize=8;curved=1;" parent="1" edge="1">
          <mxGeometry width="50" height="50" relative="1" as="geometry">
            <mxPoint x="3732.5" y="790" as="sourcePoint" />
            <mxPoint x="3732.5" y="660" as="targetPoint" />
          </mxGeometry>
        </mxCell>
        <mxCell id="X9Rjx0ZmzIJkDOcPhMr0-77" value="" style="rhombus;whiteSpace=wrap;html=1;fontSize=16;" parent="1" vertex="1">
          <mxGeometry x="3172.5" y="790" width="80" height="80" as="geometry" />
        </mxCell>
        <mxCell id="X9Rjx0ZmzIJkDOcPhMr0-78" value="" style="rhombus;whiteSpace=wrap;html=1;fontSize=16;" parent="1" vertex="1">
          <mxGeometry x="3692.5" y="790" width="80" height="80" as="geometry" />
        </mxCell>
        <mxCell id="X9Rjx0ZmzIJkDOcPhMr0-79" value="storage" style="rounded=0;whiteSpace=wrap;html=1;fontSize=16;" parent="1" vertex="1">
          <mxGeometry x="3402.5" y="810" width="125" height="40" as="geometry" />
        </mxCell>
        <mxCell id="X9Rjx0ZmzIJkDOcPhMr0-80" value="" style="endArrow=none;html=1;rounded=0;fontSize=12;startSize=8;endSize=8;curved=1;exitX=0.25;exitY=0;exitDx=0;exitDy=0;" parent="1" source="X9Rjx0ZmzIJkDOcPhMr0-79" target="X9Rjx0ZmzIJkDOcPhMr0-82" edge="1">
          <mxGeometry width="50" height="50" relative="1" as="geometry">
            <mxPoint x="3407.5" y="800" as="sourcePoint" />
            <mxPoint x="3407.5" y="770" as="targetPoint" />
          </mxGeometry>
        </mxCell>
        <mxCell id="X9Rjx0ZmzIJkDOcPhMr0-81" value="part_id" style="text;html=1;strokeColor=none;fillColor=none;align=center;verticalAlign=middle;whiteSpace=wrap;rounded=0;fontSize=16;" parent="1" vertex="1">
          <mxGeometry x="3320" y="755" width="60" height="30" as="geometry" />
        </mxCell>
        <mxCell id="X9Rjx0ZmzIJkDOcPhMr0-82" value="" style="shape=waypoint;sketch=0;fillStyle=solid;size=6;pointerEvents=1;points=[];fillColor=none;resizable=0;rotatable=0;perimeter=centerPerimeter;snapToPoint=1;fontSize=16;" parent="1" vertex="1">
          <mxGeometry x="3347.5" y="780" width="20" height="20" as="geometry" />
        </mxCell>
        <mxCell id="X9Rjx0ZmzIJkDOcPhMr0-83" value="" style="endArrow=none;html=1;rounded=0;fontSize=12;startSize=8;endSize=8;curved=1;exitX=0.5;exitY=0;exitDx=0;exitDy=0;" parent="1" source="X9Rjx0ZmzIJkDOcPhMr0-84" edge="1">
          <mxGeometry width="50" height="50" relative="1" as="geometry">
            <mxPoint x="3387.5" y="880" as="sourcePoint" />
            <mxPoint x="3417.5" y="850" as="targetPoint" />
          </mxGeometry>
        </mxCell>
        <mxCell id="X9Rjx0ZmzIJkDOcPhMr0-84" value="ship_time" style="text;html=1;strokeColor=none;fillColor=none;align=center;verticalAlign=middle;whiteSpace=wrap;rounded=0;fontSize=16;" parent="1" vertex="1">
          <mxGeometry x="3332.5" y="875" width="60" height="30" as="geometry" />
        </mxCell>
        <mxCell id="X9Rjx0ZmzIJkDOcPhMr0-85" value="" style="endArrow=none;html=1;rounded=0;fontSize=12;startSize=8;endSize=8;curved=1;exitX=0.75;exitY=0;exitDx=0;exitDy=0;entryX=0.5;entryY=1;entryDx=0;entryDy=0;" parent="1" source="X9Rjx0ZmzIJkDOcPhMr0-79" target="X9Rjx0ZmzIJkDOcPhMr0-86" edge="1">
          <mxGeometry width="50" height="50" relative="1" as="geometry">
            <mxPoint x="3477.5" y="795" as="sourcePoint" />
            <mxPoint x="3497.5" y="770" as="targetPoint" />
          </mxGeometry>
        </mxCell>
        <mxCell id="X9Rjx0ZmzIJkDOcPhMr0-86" value="price" style="text;html=1;strokeColor=none;fillColor=none;align=center;verticalAlign=middle;whiteSpace=wrap;rounded=0;fontSize=16;" parent="1" vertex="1">
          <mxGeometry x="3512.5" y="755" width="60" height="30" as="geometry" />
        </mxCell>
        <mxCell id="X9Rjx0ZmzIJkDOcPhMr0-87" value="" style="endArrow=none;html=1;rounded=0;fontSize=12;startSize=8;endSize=8;curved=1;exitX=0.75;exitY=1;exitDx=0;exitDy=0;entryX=0.5;entryY=0;entryDx=0;entryDy=0;" parent="1" source="X9Rjx0ZmzIJkDOcPhMr0-79" target="X9Rjx0ZmzIJkDOcPhMr0-88" edge="1">
          <mxGeometry width="50" height="50" relative="1" as="geometry">
            <mxPoint x="3492.5" y="920" as="sourcePoint" />
            <mxPoint x="3507.5" y="880" as="targetPoint" />
          </mxGeometry>
        </mxCell>
        <mxCell id="X9Rjx0ZmzIJkDOcPhMr0-88" value="availability" style="text;html=1;strokeColor=none;fillColor=none;align=center;verticalAlign=middle;whiteSpace=wrap;rounded=0;fontSize=16;" parent="1" vertex="1">
          <mxGeometry x="3487.5" y="880" width="60" height="30" as="geometry" />
        </mxCell>
        <mxCell id="X9Rjx0ZmzIJkDOcPhMr0-89" value="" style="endArrow=none;html=1;rounded=0;fontSize=12;startSize=8;endSize=8;curved=1;exitX=1;exitY=0.5;exitDx=0;exitDy=0;entryX=0;entryY=0.5;entryDx=0;entryDy=0;" parent="1" source="X9Rjx0ZmzIJkDOcPhMr0-77" target="X9Rjx0ZmzIJkDOcPhMr0-79" edge="1">
          <mxGeometry width="50" height="50" relative="1" as="geometry">
            <mxPoint x="3272.5" y="850" as="sourcePoint" />
            <mxPoint x="3322.5" y="800" as="targetPoint" />
          </mxGeometry>
        </mxCell>
        <mxCell id="X9Rjx0ZmzIJkDOcPhMr0-90" value="" style="endArrow=none;html=1;rounded=0;fontSize=12;startSize=8;endSize=8;curved=1;exitX=1;exitY=0.5;exitDx=0;exitDy=0;entryX=0;entryY=0.5;entryDx=0;entryDy=0;" parent="1" source="X9Rjx0ZmzIJkDOcPhMr0-79" target="X9Rjx0ZmzIJkDOcPhMr0-78" edge="1">
          <mxGeometry width="50" height="50" relative="1" as="geometry">
            <mxPoint x="3562.5" y="840" as="sourcePoint" />
            <mxPoint x="3612.5" y="790" as="targetPoint" />
          </mxGeometry>
        </mxCell>
        <mxCell id="X9Rjx0ZmzIJkDOcPhMr0-91" value="providers" style="rounded=0;whiteSpace=wrap;html=1;fontSize=16;" parent="1" vertex="1">
          <mxGeometry x="3427.5" y="90" width="100" height="40" as="geometry" />
        </mxCell>
        <mxCell id="X9Rjx0ZmzIJkDOcPhMr0-92" style="edgeStyle=none;curved=1;rounded=0;orthogonalLoop=1;jettySize=auto;html=1;entryX=0;entryY=0.5;entryDx=0;entryDy=0;fontSize=12;startSize=8;endSize=8;" parent="1" source="X9Rjx0ZmzIJkDOcPhMr0-91" target="X9Rjx0ZmzIJkDOcPhMr0-91" edge="1">
          <mxGeometry relative="1" as="geometry" />
        </mxCell>
        <mxCell id="X9Rjx0ZmzIJkDOcPhMr0-93" value="" style="endArrow=none;html=1;rounded=0;fontSize=12;startSize=8;endSize=8;curved=1;entryX=0;entryY=0;entryDx=0;entryDy=0;exitX=0.688;exitY=0.788;exitDx=0;exitDy=0;exitPerimeter=0;" parent="1" source="X9Rjx0ZmzIJkDOcPhMr0-94" target="X9Rjx0ZmzIJkDOcPhMr0-91" edge="1">
          <mxGeometry width="50" height="50" relative="1" as="geometry">
            <mxPoint x="3417.5" y="85" as="sourcePoint" />
            <mxPoint x="3397.5" y="75" as="targetPoint" />
          </mxGeometry>
        </mxCell>
        <mxCell id="X9Rjx0ZmzIJkDOcPhMr0-94" value="" style="shape=waypoint;sketch=0;fillStyle=solid;size=6;pointerEvents=1;points=[];fillColor=none;resizable=0;rotatable=0;perimeter=centerPerimeter;snapToPoint=1;fontSize=16;" parent="1" vertex="1">
          <mxGeometry x="3382.5" y="50" width="20" height="20" as="geometry" />
        </mxCell>
        <mxCell id="X9Rjx0ZmzIJkDOcPhMr0-95" value="id_provider" style="text;html=1;strokeColor=none;fillColor=none;align=center;verticalAlign=middle;whiteSpace=wrap;rounded=0;fontSize=16;" parent="1" vertex="1">
          <mxGeometry x="3362.5" y="30" width="60" height="30" as="geometry" />
        </mxCell>
        <mxCell id="X9Rjx0ZmzIJkDOcPhMr0-96" value="" style="endArrow=none;html=1;rounded=0;fontSize=12;startSize=8;endSize=8;curved=1;exitX=0.75;exitY=0;exitDx=0;exitDy=0;" parent="1" source="X9Rjx0ZmzIJkDOcPhMr0-91" target="X9Rjx0ZmzIJkDOcPhMr0-97" edge="1">
          <mxGeometry width="50" height="50" relative="1" as="geometry">
            <mxPoint x="3492.5" y="115" as="sourcePoint" />
            <mxPoint x="3542.5" y="65" as="targetPoint" />
          </mxGeometry>
        </mxCell>
        <mxCell id="X9Rjx0ZmzIJkDOcPhMr0-97" value="city" style="text;html=1;strokeColor=none;fillColor=none;align=center;verticalAlign=middle;whiteSpace=wrap;rounded=0;fontSize=16;" parent="1" vertex="1">
          <mxGeometry x="3497.5" y="30" width="60" height="30" as="geometry" />
        </mxCell>
        <mxCell id="X9Rjx0ZmzIJkDOcPhMr0-98" value="" style="endArrow=none;html=1;rounded=0;fontSize=12;startSize=8;endSize=8;curved=1;entryX=0;entryY=0.5;entryDx=0;entryDy=0;exitX=1;exitY=0.5;exitDx=0;exitDy=0;" parent="1" source="X9Rjx0ZmzIJkDOcPhMr0-99" target="X9Rjx0ZmzIJkDOcPhMr0-91" edge="1">
          <mxGeometry width="50" height="50" relative="1" as="geometry">
            <mxPoint x="3377.5" y="155" as="sourcePoint" />
            <mxPoint x="3397.5" y="115" as="targetPoint" />
          </mxGeometry>
        </mxCell>
        <mxCell id="X9Rjx0ZmzIJkDOcPhMr0-99" value="address" style="text;html=1;strokeColor=none;fillColor=none;align=center;verticalAlign=middle;whiteSpace=wrap;rounded=0;fontSize=16;" parent="1" vertex="1">
          <mxGeometry x="3330" y="120" width="60" height="30" as="geometry" />
        </mxCell>
        <mxCell id="X9Rjx0ZmzIJkDOcPhMr0-100" value="" style="endArrow=none;html=1;rounded=0;fontSize=12;startSize=8;endSize=8;curved=1;entryX=1;entryY=0.75;entryDx=0;entryDy=0;exitX=0;exitY=0;exitDx=0;exitDy=0;" parent="1" source="X9Rjx0ZmzIJkDOcPhMr0-101" target="X9Rjx0ZmzIJkDOcPhMr0-91" edge="1">
          <mxGeometry width="50" height="50" relative="1" as="geometry">
            <mxPoint x="3537.5" y="165" as="sourcePoint" />
            <mxPoint x="3577.5" y="145" as="targetPoint" />
          </mxGeometry>
        </mxCell>
        <mxCell id="X9Rjx0ZmzIJkDOcPhMr0-101" value="name" style="text;html=1;strokeColor=none;fillColor=none;align=center;verticalAlign=middle;whiteSpace=wrap;rounded=0;fontSize=16;" parent="1" vertex="1">
          <mxGeometry x="3542.5" y="130" width="60" height="30" as="geometry" />
        </mxCell>
        <mxCell id="X9Rjx0ZmzIJkDOcPhMr0-102" value="jobs" style="rounded=0;whiteSpace=wrap;html=1;fontSize=16;" parent="1" vertex="1">
          <mxGeometry x="2195" y="844.26" width="130" height="50" as="geometry" />
        </mxCell>
        <mxCell id="X9Rjx0ZmzIJkDOcPhMr0-103" value="" style="endArrow=none;html=1;rounded=0;fontSize=12;startSize=8;endSize=8;curved=1;exitDx=0;exitDy=0;" parent="1" source="X9Rjx0ZmzIJkDOcPhMr0-113" edge="1">
          <mxGeometry width="50" height="50" relative="1" as="geometry">
            <mxPoint x="2235" y="937" as="sourcePoint" />
            <mxPoint x="2170" y="912.74" as="targetPoint" />
          </mxGeometry>
        </mxCell>
        <mxCell id="X9Rjx0ZmzIJkDOcPhMr0-104" value="id_mech" style="text;html=1;strokeColor=none;fillColor=none;align=center;verticalAlign=middle;whiteSpace=wrap;rounded=0;fontSize=16;" parent="1" vertex="1">
          <mxGeometry x="2120" y="917" width="60" height="30" as="geometry" />
        </mxCell>
        <mxCell id="X9Rjx0ZmzIJkDOcPhMr0-105" value="" style="endArrow=none;html=1;rounded=0;fontSize=12;startSize=8;endSize=8;curved=1;exitX=0.75;exitY=0;exitDx=0;exitDy=0;" parent="1" source="X9Rjx0ZmzIJkDOcPhMr0-102" target="X9Rjx0ZmzIJkDOcPhMr0-108" edge="1">
          <mxGeometry width="50" height="50" relative="1" as="geometry">
            <mxPoint x="2320" y="867" as="sourcePoint" />
            <mxPoint x="2315" y="817" as="targetPoint" />
          </mxGeometry>
        </mxCell>
        <mxCell id="X9Rjx0ZmzIJkDOcPhMr0-106" style="edgeStyle=none;curved=1;rounded=0;orthogonalLoop=1;jettySize=auto;html=1;entryX=-0.002;entryY=1.176;entryDx=0;entryDy=0;entryPerimeter=0;fontSize=12;startSize=8;endSize=8;" parent="1" edge="1">
          <mxGeometry relative="1" as="geometry">
            <mxPoint x="2340" y="962" as="sourcePoint" />
            <mxPoint x="2340" y="962" as="targetPoint" />
          </mxGeometry>
        </mxCell>
        <mxCell id="X9Rjx0ZmzIJkDOcPhMr0-107" value="id_vehicle" style="text;html=1;strokeColor=none;fillColor=none;align=center;verticalAlign=middle;whiteSpace=wrap;rounded=0;fontSize=16;" parent="1" vertex="1">
          <mxGeometry x="2300" y="787" width="60" height="30" as="geometry" />
        </mxCell>
        <mxCell id="X9Rjx0ZmzIJkDOcPhMr0-108" value="" style="shape=waypoint;sketch=0;fillStyle=solid;size=6;pointerEvents=1;points=[];fillColor=none;resizable=0;rotatable=0;perimeter=centerPerimeter;snapToPoint=1;fontSize=16;" parent="1" vertex="1">
          <mxGeometry x="2305" y="807" width="20" height="20" as="geometry" />
        </mxCell>
        <mxCell id="X9Rjx0ZmzIJkDOcPhMr0-109" value="" style="endArrow=none;html=1;rounded=0;fontSize=12;startSize=8;endSize=8;curved=1;exitX=1;exitY=0.75;exitDx=0;exitDy=0;" parent="1" source="X9Rjx0ZmzIJkDOcPhMr0-102" target="X9Rjx0ZmzIJkDOcPhMr0-110" edge="1">
          <mxGeometry width="50" height="50" relative="1" as="geometry">
            <mxPoint x="2370" y="937" as="sourcePoint" />
            <mxPoint x="2355" y="907" as="targetPoint" />
          </mxGeometry>
        </mxCell>
        <mxCell id="X9Rjx0ZmzIJkDOcPhMr0-110" value="" style="shape=waypoint;sketch=0;fillStyle=solid;size=6;pointerEvents=1;points=[];fillColor=none;resizable=0;rotatable=0;perimeter=centerPerimeter;snapToPoint=1;fontSize=16;" parent="1" vertex="1">
          <mxGeometry x="2345" y="897" width="20" height="20" as="geometry" />
        </mxCell>
        <mxCell id="X9Rjx0ZmzIJkDOcPhMr0-111" value="job_id" style="text;html=1;strokeColor=none;fillColor=none;align=center;verticalAlign=middle;whiteSpace=wrap;rounded=0;fontSize=16;" parent="1" vertex="1">
          <mxGeometry x="2330" y="902" width="60" height="30" as="geometry" />
        </mxCell>
        <mxCell id="X9Rjx0ZmzIJkDOcPhMr0-112" value="" style="endArrow=none;html=1;rounded=0;fontSize=12;startSize=8;endSize=8;curved=1;exitX=0.25;exitY=1;exitDx=0;exitDy=0;" parent="1" source="X9Rjx0ZmzIJkDOcPhMr0-102" target="X9Rjx0ZmzIJkDOcPhMr0-113" edge="1">
          <mxGeometry width="50" height="50" relative="1" as="geometry">
            <mxPoint x="2223" y="896.74" as="sourcePoint" />
            <mxPoint x="2170" y="912.74" as="targetPoint" />
          </mxGeometry>
        </mxCell>
        <mxCell id="X9Rjx0ZmzIJkDOcPhMr0-113" value="" style="shape=waypoint;sketch=0;fillStyle=solid;size=6;pointerEvents=1;points=[];fillColor=none;resizable=0;rotatable=0;perimeter=centerPerimeter;snapToPoint=1;fontSize=16;" parent="1" vertex="1">
          <mxGeometry x="2150" y="907" width="20" height="20" as="geometry" />
        </mxCell>
        <mxCell id="X9Rjx0ZmzIJkDOcPhMr0-114" value="vehichles" style="rounded=0;whiteSpace=wrap;html=1;fontSize=16;" parent="1" vertex="1">
          <mxGeometry x="1440" y="839.26" width="120" height="60" as="geometry" />
        </mxCell>
        <mxCell id="X9Rjx0ZmzIJkDOcPhMr0-115" value="vehicle_id" style="text;html=1;strokeColor=none;fillColor=none;align=center;verticalAlign=middle;whiteSpace=wrap;rounded=0;fontSize=16;" parent="1" vertex="1">
          <mxGeometry x="1335" y="795" width="60" height="30" as="geometry" />
        </mxCell>
        <mxCell id="X9Rjx0ZmzIJkDOcPhMr0-116" value="arrival_date" style="text;strokeColor=none;fillColor=none;align=left;verticalAlign=middle;spacingLeft=4;spacingRight=4;overflow=hidden;points=[[0,0.5],[1,0.5]];portConstraint=eastwest;rotatable=0;whiteSpace=wrap;html=1;fontSize=16;" parent="1" vertex="1">
          <mxGeometry x="1537.5" y="795" width="90" height="30" as="geometry" />
        </mxCell>
        <mxCell id="X9Rjx0ZmzIJkDOcPhMr0-117" value="" style="endArrow=none;html=1;rounded=0;fontSize=12;startSize=8;endSize=8;curved=1;entryX=0.25;entryY=0;entryDx=0;entryDy=0;exitX=0.5;exitY=1;exitDx=0;exitDy=0;" parent="1" source="X9Rjx0ZmzIJkDOcPhMr0-115" target="X9Rjx0ZmzIJkDOcPhMr0-114" edge="1">
          <mxGeometry width="50" height="50" relative="1" as="geometry">
            <mxPoint x="1295" y="865" as="sourcePoint" />
            <mxPoint x="1365" y="835" as="targetPoint" />
          </mxGeometry>
        </mxCell>
        <mxCell id="X9Rjx0ZmzIJkDOcPhMr0-118" value="" style="endArrow=none;html=1;rounded=0;fontSize=12;startSize=8;endSize=8;curved=1;entryX=0.531;entryY=0.99;entryDx=0;entryDy=0;entryPerimeter=0;exitX=1;exitY=0;exitDx=0;exitDy=0;" parent="1" source="X9Rjx0ZmzIJkDOcPhMr0-114" target="X9Rjx0ZmzIJkDOcPhMr0-116" edge="1">
          <mxGeometry width="50" height="50" relative="1" as="geometry">
            <mxPoint x="1410" y="855" as="sourcePoint" />
            <mxPoint x="1460" y="805" as="targetPoint" />
          </mxGeometry>
        </mxCell>
        <mxCell id="X9Rjx0ZmzIJkDOcPhMr0-119" value="" style="shape=waypoint;sketch=0;fillStyle=solid;size=6;pointerEvents=1;points=[];fillColor=none;resizable=0;rotatable=0;perimeter=centerPerimeter;snapToPoint=1;fontSize=16;" parent="1" vertex="1">
          <mxGeometry x="1355" y="815" width="20" height="20" as="geometry" />
        </mxCell>
        <mxCell id="X9Rjx0ZmzIJkDOcPhMr0-120" value="" style="endArrow=none;html=1;rounded=0;fontSize=12;startSize=8;endSize=8;curved=1;entryX=0.124;entryY=1.009;entryDx=0;entryDy=0;entryPerimeter=0;exitX=0.75;exitY=0;exitDx=0;exitDy=0;" parent="1" source="X9Rjx0ZmzIJkDOcPhMr0-121" target="X9Rjx0ZmzIJkDOcPhMr0-114" edge="1">
          <mxGeometry width="50" height="50" relative="1" as="geometry">
            <mxPoint x="1325" y="935" as="sourcePoint" />
            <mxPoint x="1385" y="925" as="targetPoint" />
          </mxGeometry>
        </mxCell>
        <mxCell id="X9Rjx0ZmzIJkDOcPhMr0-121" value="status" style="text;html=1;strokeColor=none;fillColor=none;align=center;verticalAlign=middle;whiteSpace=wrap;rounded=0;fontSize=16;" parent="1" vertex="1">
          <mxGeometry x="1300" y="925" width="60" height="30" as="geometry" />
        </mxCell>
        <mxCell id="X9Rjx0ZmzIJkDOcPhMr0-122" value="vehicle_data" style="rounded=0;whiteSpace=wrap;html=1;fontSize=16;" parent="1" vertex="1">
          <mxGeometry x="1167.5" y="695" width="85" height="30" as="geometry" />
        </mxCell>
        <mxCell id="X9Rjx0ZmzIJkDOcPhMr0-123" value="" style="endArrow=none;html=1;rounded=0;fontSize=12;startSize=8;endSize=8;curved=1;exitX=0.25;exitY=0;exitDx=0;exitDy=0;" parent="1" source="X9Rjx0ZmzIJkDOcPhMr0-122" target="X9Rjx0ZmzIJkDOcPhMr0-124" edge="1">
          <mxGeometry width="50" height="50" relative="1" as="geometry">
            <mxPoint x="1170" y="670" as="sourcePoint" />
            <mxPoint x="1160" y="640" as="targetPoint" />
          </mxGeometry>
        </mxCell>
        <mxCell id="X9Rjx0ZmzIJkDOcPhMr0-124" value="model" style="text;html=1;strokeColor=none;fillColor=none;align=center;verticalAlign=middle;whiteSpace=wrap;rounded=0;fontSize=16;" parent="1" vertex="1">
          <mxGeometry x="1130" y="632.5" width="60" height="30" as="geometry" />
        </mxCell>
        <mxCell id="X9Rjx0ZmzIJkDOcPhMr0-125" value="" style="endArrow=none;html=1;rounded=0;fontSize=12;startSize=8;endSize=8;curved=1;exitX=0.75;exitY=1;exitDx=0;exitDy=0;" parent="1" source="X9Rjx0ZmzIJkDOcPhMr0-122" target="X9Rjx0ZmzIJkDOcPhMr0-126" edge="1">
          <mxGeometry width="50" height="50" relative="1" as="geometry">
            <mxPoint x="1230" y="690" as="sourcePoint" />
            <mxPoint x="1250" y="640" as="targetPoint" />
          </mxGeometry>
        </mxCell>
        <mxCell id="X9Rjx0ZmzIJkDOcPhMr0-126" value="brand" style="text;html=1;strokeColor=none;fillColor=none;align=center;verticalAlign=middle;whiteSpace=wrap;rounded=0;fontSize=16;" parent="1" vertex="1">
          <mxGeometry x="1242.5" y="735" width="60" height="30" as="geometry" />
        </mxCell>
        <mxCell id="X9Rjx0ZmzIJkDOcPhMr0-127" value="" style="endArrow=none;html=1;rounded=0;fontSize=12;startSize=8;endSize=8;curved=1;exitX=0.25;exitY=1;exitDx=0;exitDy=0;" parent="1" source="X9Rjx0ZmzIJkDOcPhMr0-122" target="X9Rjx0ZmzIJkDOcPhMr0-128" edge="1">
          <mxGeometry width="50" height="50" relative="1" as="geometry">
            <mxPoint x="1160" y="760" as="sourcePoint" />
            <mxPoint x="1190" y="720" as="targetPoint" />
          </mxGeometry>
        </mxCell>
        <mxCell id="X9Rjx0ZmzIJkDOcPhMr0-128" value="tag" style="text;html=1;strokeColor=none;fillColor=none;align=center;verticalAlign=middle;whiteSpace=wrap;rounded=0;fontSize=16;" parent="1" vertex="1">
          <mxGeometry x="1120" y="735" width="60" height="30" as="geometry" />
        </mxCell>
        <mxCell id="X9Rjx0ZmzIJkDOcPhMr0-129" value="" style="endArrow=none;html=1;rounded=0;fontSize=12;startSize=8;endSize=8;curved=1;exitX=0.75;exitY=0;exitDx=0;exitDy=0;" parent="1" source="X9Rjx0ZmzIJkDOcPhMr0-122" target="X9Rjx0ZmzIJkDOcPhMr0-130" edge="1">
          <mxGeometry width="50" height="50" relative="1" as="geometry">
            <mxPoint x="1255" y="710" as="sourcePoint" />
            <mxPoint x="1290" y="680" as="targetPoint" />
          </mxGeometry>
        </mxCell>
        <mxCell id="X9Rjx0ZmzIJkDOcPhMr0-130" value="reg_date&lt;br&gt;(immatricola&lt;br&gt;zione)" style="text;html=1;strokeColor=none;fillColor=none;align=center;verticalAlign=middle;whiteSpace=wrap;rounded=0;fontSize=16;" parent="1" vertex="1">
          <mxGeometry x="1252.5" y="635" width="50" height="25" as="geometry" />
        </mxCell>
        <mxCell id="X9Rjx0ZmzIJkDOcPhMr0-131" value="clients" style="rounded=0;whiteSpace=wrap;html=1;fontSize=16;" parent="1" vertex="1">
          <mxGeometry x="1450" y="418.75" width="100" height="42.5" as="geometry" />
        </mxCell>
        <mxCell id="X9Rjx0ZmzIJkDOcPhMr0-132" value="client_id" style="text;html=1;strokeColor=none;fillColor=none;align=center;verticalAlign=middle;whiteSpace=wrap;rounded=0;fontSize=16;" parent="1" vertex="1">
          <mxGeometry x="1517.5" y="355" width="60" height="30" as="geometry" />
        </mxCell>
        <mxCell id="X9Rjx0ZmzIJkDOcPhMr0-133" value="" style="shape=waypoint;sketch=0;fillStyle=solid;size=6;pointerEvents=1;points=[];fillColor=none;resizable=0;rotatable=0;perimeter=centerPerimeter;snapToPoint=1;fontSize=16;" parent="1" vertex="1">
          <mxGeometry x="1537.5" y="370" width="20" height="20" as="geometry" />
        </mxCell>
        <mxCell id="X9Rjx0ZmzIJkDOcPhMr0-134" value="" style="endArrow=none;html=1;rounded=0;fontSize=12;startSize=8;endSize=8;curved=1;entryX=0.25;entryY=0;entryDx=0;entryDy=0;exitX=1;exitY=0.75;exitDx=0;exitDy=0;" parent="1" source="X9Rjx0ZmzIJkDOcPhMr0-135" target="X9Rjx0ZmzIJkDOcPhMr0-131" edge="1">
          <mxGeometry width="50" height="50" relative="1" as="geometry">
            <mxPoint x="1412.5" y="440" as="sourcePoint" />
            <mxPoint x="1432.5" y="430" as="targetPoint" />
          </mxGeometry>
        </mxCell>
        <mxCell id="X9Rjx0ZmzIJkDOcPhMr0-135" value="vat_number" style="text;html=1;strokeColor=none;fillColor=none;align=center;verticalAlign=middle;whiteSpace=wrap;rounded=0;fontSize=16;" parent="1" vertex="1">
          <mxGeometry x="1365" y="345" width="60" height="40" as="geometry" />
        </mxCell>
        <mxCell id="X9Rjx0ZmzIJkDOcPhMr0-136" value="" style="endArrow=none;html=1;rounded=0;fontSize=12;startSize=8;endSize=8;curved=1;exitX=0.597;exitY=0.056;exitDx=0;exitDy=0;exitPerimeter=0;entryX=0;entryY=0.75;entryDx=0;entryDy=0;" parent="1" source="X9Rjx0ZmzIJkDOcPhMr0-137" target="X9Rjx0ZmzIJkDOcPhMr0-131" edge="1">
          <mxGeometry width="50" height="50" relative="1" as="geometry">
            <mxPoint x="1422.5" y="490" as="sourcePoint" />
            <mxPoint x="1452.5" y="460" as="targetPoint" />
          </mxGeometry>
        </mxCell>
        <mxCell id="X9Rjx0ZmzIJkDOcPhMr0-137" value="company_name" style="text;html=1;strokeColor=none;fillColor=none;align=center;verticalAlign=middle;whiteSpace=wrap;rounded=0;fontSize=16;" parent="1" vertex="1">
          <mxGeometry x="1340" y="467.5" width="60" height="30" as="geometry" />
        </mxCell>
        <mxCell id="X9Rjx0ZmzIJkDOcPhMr0-138" value="" style="endArrow=none;html=1;rounded=0;fontSize=12;startSize=8;endSize=8;curved=1;exitX=0.75;exitY=0;exitDx=0;exitDy=0;" parent="1" source="X9Rjx0ZmzIJkDOcPhMr0-131" target="X9Rjx0ZmzIJkDOcPhMr0-133" edge="1">
          <mxGeometry width="50" height="50" relative="1" as="geometry">
            <mxPoint x="1517.5" y="420" as="sourcePoint" />
            <mxPoint x="1567.5" y="370" as="targetPoint" />
          </mxGeometry>
        </mxCell>
        <mxCell id="X9Rjx0ZmzIJkDOcPhMr0-139" value="users&lt;br&gt;" style="rounded=0;whiteSpace=wrap;html=1;fontSize=16;" parent="1" vertex="1">
          <mxGeometry x="1857.5" y="415" width="120" height="50" as="geometry" />
        </mxCell>
        <mxCell id="X9Rjx0ZmzIJkDOcPhMr0-140" value="" style="endArrow=none;html=1;rounded=0;fontSize=12;startSize=8;endSize=8;curved=1;entryX=0.25;entryY=0;entryDx=0;entryDy=0;" parent="1" source="X9Rjx0ZmzIJkDOcPhMr0-146" target="X9Rjx0ZmzIJkDOcPhMr0-139" edge="1">
          <mxGeometry width="50" height="50" relative="1" as="geometry">
            <mxPoint x="1835" y="410" as="sourcePoint" />
            <mxPoint x="1747.5" y="427.5" as="targetPoint" />
          </mxGeometry>
        </mxCell>
        <mxCell id="X9Rjx0ZmzIJkDOcPhMr0-141" value="id&amp;nbsp;" style="text;html=1;strokeColor=none;fillColor=none;align=center;verticalAlign=middle;whiteSpace=wrap;rounded=0;fontSize=16;" parent="1" vertex="1">
          <mxGeometry x="1805" y="370" width="60" height="30" as="geometry" />
        </mxCell>
        <mxCell id="X9Rjx0ZmzIJkDOcPhMr0-142" value="username&amp;nbsp;&lt;br&gt;" style="text;html=1;strokeColor=none;fillColor=none;align=center;verticalAlign=middle;whiteSpace=wrap;rounded=0;fontSize=16;" parent="1" vertex="1">
          <mxGeometry x="1767.5" y="457.5" width="60" height="30" as="geometry" />
        </mxCell>
        <mxCell id="X9Rjx0ZmzIJkDOcPhMr0-143" value="password&lt;br&gt;" style="text;html=1;strokeColor=none;fillColor=none;align=center;verticalAlign=middle;whiteSpace=wrap;rounded=0;fontSize=16;" parent="1" vertex="1">
          <mxGeometry x="1977.5" y="472.5" width="60" height="30" as="geometry" />
        </mxCell>
        <mxCell id="X9Rjx0ZmzIJkDOcPhMr0-144" value="" style="endArrow=none;html=1;rounded=0;fontSize=12;startSize=8;endSize=8;curved=1;entryX=1;entryY=0.25;entryDx=0;entryDy=0;exitX=0.001;exitY=0.662;exitDx=0;exitDy=0;exitPerimeter=0;" parent="1" source="X9Rjx0ZmzIJkDOcPhMr0-139" target="X9Rjx0ZmzIJkDOcPhMr0-142" edge="1">
          <mxGeometry width="50" height="50" relative="1" as="geometry">
            <mxPoint x="1887.5" y="417.5" as="sourcePoint" />
            <mxPoint x="1937.5" y="367.5" as="targetPoint" />
          </mxGeometry>
        </mxCell>
        <mxCell id="X9Rjx0ZmzIJkDOcPhMr0-145" value="" style="endArrow=none;html=1;rounded=0;fontSize=12;startSize=8;endSize=8;curved=1;exitX=1;exitY=0.75;exitDx=0;exitDy=0;entryX=0.25;entryY=0;entryDx=0;entryDy=0;" parent="1" source="X9Rjx0ZmzIJkDOcPhMr0-139" target="X9Rjx0ZmzIJkDOcPhMr0-143" edge="1">
          <mxGeometry width="50" height="50" relative="1" as="geometry">
            <mxPoint x="1927.5" y="347.5" as="sourcePoint" />
            <mxPoint x="1977.5" y="297.5" as="targetPoint" />
          </mxGeometry>
        </mxCell>
        <mxCell id="X9Rjx0ZmzIJkDOcPhMr0-146" value="" style="shape=waypoint;sketch=0;fillStyle=solid;size=6;pointerEvents=1;points=[];fillColor=none;resizable=0;rotatable=0;perimeter=centerPerimeter;snapToPoint=1;fontSize=16;" parent="1" vertex="1">
          <mxGeometry x="1822.5" y="390" width="20" height="20" as="geometry" />
        </mxCell>
        <mxCell id="X9Rjx0ZmzIJkDOcPhMr0-147" value="employees" style="rounded=0;whiteSpace=wrap;html=1;fontSize=16;" parent="1" vertex="1">
          <mxGeometry x="2210" y="420" width="100" height="40" as="geometry" />
        </mxCell>
        <mxCell id="X9Rjx0ZmzIJkDOcPhMr0-148" value="employee_id" style="text;html=1;strokeColor=none;fillColor=none;align=center;verticalAlign=middle;whiteSpace=wrap;rounded=0;fontSize=16;" parent="1" vertex="1">
          <mxGeometry x="2110" y="365" width="60" height="30" as="geometry" />
        </mxCell>
        <mxCell id="X9Rjx0ZmzIJkDOcPhMr0-149" value="" style="shape=waypoint;sketch=0;fillStyle=solid;size=6;pointerEvents=1;points=[];fillColor=none;resizable=0;rotatable=0;perimeter=centerPerimeter;snapToPoint=1;fontSize=16;" parent="1" vertex="1">
          <mxGeometry x="2130" y="387.5" width="20" height="20" as="geometry" />
        </mxCell>
        <mxCell id="X9Rjx0ZmzIJkDOcPhMr0-150" value="" style="endArrow=none;html=1;rounded=0;fontSize=12;startSize=8;endSize=8;curved=1;entryX=0.172;entryY=1.041;entryDx=0;entryDy=0;exitX=0.403;exitY=0;exitDx=0;exitDy=0;exitPerimeter=0;entryPerimeter=0;" parent="1" source="X9Rjx0ZmzIJkDOcPhMr0-151" target="X9Rjx0ZmzIJkDOcPhMr0-147" edge="1">
          <mxGeometry width="50" height="50" relative="1" as="geometry">
            <mxPoint x="2300" y="505" as="sourcePoint" />
            <mxPoint x="2310" y="485" as="targetPoint" />
          </mxGeometry>
        </mxCell>
        <mxCell id="X9Rjx0ZmzIJkDOcPhMr0-151" value="hiring_date" style="text;html=1;strokeColor=none;fillColor=none;align=center;verticalAlign=middle;whiteSpace=wrap;rounded=0;fontSize=16;" parent="1" vertex="1">
          <mxGeometry x="2150" y="480" width="60" height="30" as="geometry" />
        </mxCell>
        <mxCell id="X9Rjx0ZmzIJkDOcPhMr0-152" value="" style="endArrow=none;html=1;rounded=0;fontSize=12;startSize=8;endSize=8;curved=1;exitX=0.5;exitY=0;exitDx=0;exitDy=0;entryX=0.485;entryY=1.094;entryDx=0;entryDy=0;entryPerimeter=0;" parent="1" source="X9Rjx0ZmzIJkDOcPhMr0-147" target="X9Rjx0ZmzIJkDOcPhMr0-153" edge="1">
          <mxGeometry width="50" height="50" relative="1" as="geometry">
            <mxPoint x="2320" y="455" as="sourcePoint" />
            <mxPoint x="2350" y="425" as="targetPoint" />
          </mxGeometry>
        </mxCell>
        <mxCell id="X9Rjx0ZmzIJkDOcPhMr0-153" value="monthly_salary" style="text;html=1;strokeColor=none;fillColor=none;align=center;verticalAlign=middle;whiteSpace=wrap;rounded=0;fontSize=16;" parent="1" vertex="1">
          <mxGeometry x="2245" y="342.5" width="60" height="30" as="geometry" />
        </mxCell>
        <mxCell id="X9Rjx0ZmzIJkDOcPhMr0-154" value="" style="endArrow=none;html=1;rounded=0;fontSize=12;startSize=8;endSize=8;curved=1;exitX=1;exitY=0.25;exitDx=0;exitDy=0;entryX=0;entryY=0.5;entryDx=0;entryDy=0;" parent="1" source="X9Rjx0ZmzIJkDOcPhMr0-147" target="X9Rjx0ZmzIJkDOcPhMr0-155" edge="1">
          <mxGeometry width="50" height="50" relative="1" as="geometry">
            <mxPoint x="2330" y="485" as="sourcePoint" />
            <mxPoint x="2380" y="475" as="targetPoint" />
          </mxGeometry>
        </mxCell>
        <mxCell id="X9Rjx0ZmzIJkDOcPhMr0-155" value="tax_code(codice fiscale)" style="text;html=1;strokeColor=none;fillColor=none;align=center;verticalAlign=middle;whiteSpace=wrap;rounded=0;fontSize=16;" parent="1" vertex="1">
          <mxGeometry x="2360" y="392.5" width="60" height="30" as="geometry" />
        </mxCell>
        <mxCell id="X9Rjx0ZmzIJkDOcPhMr0-156" value="" style="endArrow=none;html=1;rounded=0;fontSize=12;startSize=8;endSize=8;curved=1;entryX=0;entryY=0.25;entryDx=0;entryDy=0;exitX=0.524;exitY=0.762;exitDx=0;exitDy=0;exitPerimeter=0;" parent="1" source="X9Rjx0ZmzIJkDOcPhMr0-149" target="X9Rjx0ZmzIJkDOcPhMr0-147" edge="1">
          <mxGeometry width="50" height="50" relative="1" as="geometry">
            <mxPoint x="2145" y="435" as="sourcePoint" />
            <mxPoint x="2195" y="385" as="targetPoint" />
          </mxGeometry>
        </mxCell>
        <mxCell id="X9Rjx0ZmzIJkDOcPhMr0-157" style="edgeStyle=none;curved=1;rounded=0;orthogonalLoop=1;jettySize=auto;html=1;exitX=0.5;exitY=1;exitDx=0;exitDy=0;fontSize=12;startSize=8;endSize=8;" parent="1" source="X9Rjx0ZmzIJkDOcPhMr0-153" target="X9Rjx0ZmzIJkDOcPhMr0-153" edge="1">
          <mxGeometry relative="1" as="geometry" />
        </mxCell>
        <mxCell id="X9Rjx0ZmzIJkDOcPhMr0-158" value="" style="endArrow=none;html=1;rounded=0;fontSize=12;startSize=8;endSize=8;curved=1;exitX=0.75;exitY=1;exitDx=0;exitDy=0;entryX=0.5;entryY=0;entryDx=0;entryDy=0;" parent="1" source="X9Rjx0ZmzIJkDOcPhMr0-147" target="X9Rjx0ZmzIJkDOcPhMr0-159" edge="1">
          <mxGeometry width="50" height="50" relative="1" as="geometry">
            <mxPoint x="2335" y="555" as="sourcePoint" />
            <mxPoint x="2335" y="495" as="targetPoint" />
          </mxGeometry>
        </mxCell>
        <mxCell id="X9Rjx0ZmzIJkDOcPhMr0-159" value="position(stage,full time,part time)" style="text;html=1;strokeColor=none;fillColor=none;align=center;verticalAlign=middle;whiteSpace=wrap;rounded=0;fontSize=16;" parent="1" vertex="1">
          <mxGeometry x="2330" y="480" width="60" height="30" as="geometry" />
        </mxCell>
        <mxCell id="X9Rjx0ZmzIJkDOcPhMr0-160" value="data" style="rounded=0;whiteSpace=wrap;html=1;fontSize=16;" parent="1" vertex="1">
          <mxGeometry x="1867.5" y="715" width="100" height="50" as="geometry" />
        </mxCell>
        <mxCell id="X9Rjx0ZmzIJkDOcPhMr0-161" value="" style="endArrow=none;html=1;rounded=0;fontSize=12;startSize=8;endSize=8;curved=1;entryX=0.25;entryY=0;entryDx=0;entryDy=0;exitX=0.625;exitY=0.944;exitDx=0;exitDy=0;exitPerimeter=0;" parent="1" source="X9Rjx0ZmzIJkDOcPhMr0-162" target="X9Rjx0ZmzIJkDOcPhMr0-160" edge="1">
          <mxGeometry width="50" height="50" relative="1" as="geometry">
            <mxPoint x="1767.5" y="730" as="sourcePoint" />
            <mxPoint x="1817.5" y="680" as="targetPoint" />
          </mxGeometry>
        </mxCell>
        <mxCell id="X9Rjx0ZmzIJkDOcPhMr0-162" value="name" style="text;html=1;strokeColor=none;fillColor=none;align=center;verticalAlign=middle;whiteSpace=wrap;rounded=0;fontSize=16;" parent="1" vertex="1">
          <mxGeometry x="1797.5" y="680" width="60" height="30" as="geometry" />
        </mxCell>
        <mxCell id="X9Rjx0ZmzIJkDOcPhMr0-163" value="surname" style="text;html=1;strokeColor=none;fillColor=none;align=center;verticalAlign=middle;whiteSpace=wrap;rounded=0;fontSize=16;" parent="1" vertex="1">
          <mxGeometry x="1957.5" y="675" width="60" height="30" as="geometry" />
        </mxCell>
        <mxCell id="X9Rjx0ZmzIJkDOcPhMr0-164" value="address&lt;br&gt;" style="text;html=1;strokeColor=none;fillColor=none;align=center;verticalAlign=middle;whiteSpace=wrap;rounded=0;fontSize=16;" parent="1" vertex="1">
          <mxGeometry x="1767.5" y="750" width="60" height="30" as="geometry" />
        </mxCell>
        <mxCell id="X9Rjx0ZmzIJkDOcPhMr0-165" value="phone_num" style="text;html=1;strokeColor=none;fillColor=none;align=center;verticalAlign=middle;whiteSpace=wrap;rounded=0;fontSize=16;" parent="1" vertex="1">
          <mxGeometry x="1995" y="775" width="60" height="30" as="geometry" />
        </mxCell>
        <mxCell id="X9Rjx0ZmzIJkDOcPhMr0-166" value="" style="endArrow=none;html=1;rounded=0;fontSize=12;startSize=8;endSize=8;curved=1;entryX=0;entryY=0.75;entryDx=0;entryDy=0;exitX=1;exitY=0.5;exitDx=0;exitDy=0;" parent="1" source="X9Rjx0ZmzIJkDOcPhMr0-164" target="X9Rjx0ZmzIJkDOcPhMr0-160" edge="1">
          <mxGeometry width="50" height="50" relative="1" as="geometry">
            <mxPoint x="1837.5" y="760" as="sourcePoint" />
            <mxPoint x="1827.5" y="760" as="targetPoint" />
          </mxGeometry>
        </mxCell>
        <mxCell id="X9Rjx0ZmzIJkDOcPhMr0-167" value="" style="endArrow=none;html=1;rounded=0;fontSize=12;startSize=8;endSize=8;curved=1;entryX=0.5;entryY=1;entryDx=0;entryDy=0;exitX=0.75;exitY=0;exitDx=0;exitDy=0;" parent="1" source="X9Rjx0ZmzIJkDOcPhMr0-160" target="X9Rjx0ZmzIJkDOcPhMr0-163" edge="1">
          <mxGeometry width="50" height="50" relative="1" as="geometry">
            <mxPoint x="1907.5" y="740" as="sourcePoint" />
            <mxPoint x="1982.5" y="700" as="targetPoint" />
          </mxGeometry>
        </mxCell>
        <mxCell id="X9Rjx0ZmzIJkDOcPhMr0-168" value="" style="endArrow=none;html=1;rounded=0;fontSize=12;startSize=8;endSize=8;curved=1;entryX=1;entryY=0.75;entryDx=0;entryDy=0;exitX=0.5;exitY=0;exitDx=0;exitDy=0;" parent="1" source="X9Rjx0ZmzIJkDOcPhMr0-165" target="X9Rjx0ZmzIJkDOcPhMr0-160" edge="1">
          <mxGeometry width="50" height="50" relative="1" as="geometry">
            <mxPoint x="2017.5" y="785" as="sourcePoint" />
            <mxPoint x="1937.4999999999998" y="775" as="targetPoint" />
          </mxGeometry>
        </mxCell>
        <mxCell id="Dim5QOcSXNg3E_LtALoV-1" value="builds_on" style="text;html=1;align=center;verticalAlign=middle;resizable=0;points=[];autosize=1;strokeColor=none;fillColor=none;fontSize=16;" parent="1" vertex="1">
          <mxGeometry x="3792.5" y="400" width="90" height="30" as="geometry" />
        </mxCell>
        <mxCell id="Dim5QOcSXNg3E_LtALoV-2" value="year_from" style="text;html=1;align=center;verticalAlign=middle;resizable=0;points=[];autosize=1;strokeColor=none;fillColor=none;fontSize=16;" parent="1" vertex="1">
          <mxGeometry x="3537.5" y="300" width="100" height="30" as="geometry" />
        </mxCell>
        <mxCell id="Dim5QOcSXNg3E_LtALoV-3" value="year_to" style="text;html=1;align=center;verticalAlign=middle;resizable=0;points=[];autosize=1;strokeColor=none;fillColor=none;fontSize=16;" parent="1" vertex="1">
          <mxGeometry x="3577.5" y="398" width="80" height="30" as="geometry" />
        </mxCell>
        <mxCell id="Dim5QOcSXNg3E_LtALoV-4" value="mid_provider&amp;nbsp;" style="text;html=1;align=center;verticalAlign=middle;resizable=0;points=[];autosize=1;strokeColor=none;fillColor=none;fontSize=16;" parent="1" vertex="1">
          <mxGeometry x="3910" y="320" width="120" height="30" as="geometry" />
        </mxCell>
        <mxCell id="Dim5QOcSXNg3E_LtALoV-5" value="color" style="text;html=1;align=center;verticalAlign=middle;resizable=0;points=[];autosize=1;strokeColor=none;fillColor=none;fontSize=16;" parent="1" vertex="1">
          <mxGeometry x="3072.5" y="388" width="60" height="30" as="geometry" />
        </mxCell>
        <mxCell id="Dim5QOcSXNg3E_LtALoV-6" value="year" style="text;html=1;align=center;verticalAlign=middle;resizable=0;points=[];autosize=1;strokeColor=none;fillColor=none;fontSize=16;" parent="1" vertex="1">
          <mxGeometry x="3312.5" y="320" width="50" height="30" as="geometry" />
        </mxCell>
        <mxCell id="Dim5QOcSXNg3E_LtALoV-7" value="vehicle_model" style="text;html=1;align=center;verticalAlign=middle;resizable=0;points=[];autosize=1;strokeColor=none;fillColor=none;fontSize=16;" parent="1" vertex="1">
          <mxGeometry x="3242.5" y="400" width="130" height="30" as="geometry" />
        </mxCell>
        <mxCell id="Dim5QOcSXNg3E_LtALoV-8" value="part_id(key)" style="text;html=1;align=center;verticalAlign=middle;resizable=0;points=[];autosize=1;strokeColor=none;fillColor=none;fontSize=16;" parent="1" vertex="1">
          <mxGeometry x="3247.5" y="660" width="110" height="30" as="geometry" />
        </mxCell>
        <mxCell id="Dim5QOcSXNg3E_LtALoV-9" value="int_part_id (key)" style="text;html=1;align=center;verticalAlign=middle;resizable=0;points=[];autosize=1;strokeColor=none;fillColor=none;fontSize=16;" parent="1" vertex="1">
          <mxGeometry x="3557.5" y="680" width="140" height="30" as="geometry" />
        </mxCell>
        <mxCell id="h-zlI2FKjXPEG0V7gKLA-1" value="" style="endArrow=none;html=1;rounded=0;fontSize=12;startSize=8;endSize=8;curved=1;exitX=0.75;exitY=1;exitDx=0;exitDy=0;entryX=0.424;entryY=-0.09;entryDx=0;entryDy=0;entryPerimeter=0;" parent="1" source="X9Rjx0ZmzIJkDOcPhMr0-43" target="Dim5QOcSXNg3E_LtALoV-1" edge="1">
          <mxGeometry width="50" height="50" relative="1" as="geometry">
            <mxPoint x="3822.5" y="370" as="sourcePoint" />
            <mxPoint x="3872.5" y="320" as="targetPoint" />
          </mxGeometry>
        </mxCell>
        <mxCell id="h-zlI2FKjXPEG0V7gKLA-2" value="" style="endArrow=none;html=1;rounded=0;fontSize=12;startSize=8;endSize=8;curved=1;entryX=1;entryY=0.5;entryDx=0;entryDy=0;" parent="1" source="h-zlI2FKjXPEG0V7gKLA-4" target="X9Rjx0ZmzIJkDOcPhMr0-43" edge="1">
          <mxGeometry width="50" height="50" relative="1" as="geometry">
            <mxPoint x="3912.5" y="340" as="sourcePoint" />
            <mxPoint x="3692.5" y="380" as="targetPoint" />
          </mxGeometry>
        </mxCell>
        <mxCell id="h-zlI2FKjXPEG0V7gKLA-3" value="" style="endArrow=none;html=1;rounded=0;fontSize=12;startSize=8;endSize=8;curved=1;exitX=0.531;exitY=1.076;exitDx=0;exitDy=0;exitPerimeter=0;entryX=0;entryY=0.5;entryDx=0;entryDy=0;" parent="1" source="Dim5QOcSXNg3E_LtALoV-2" target="X9Rjx0ZmzIJkDOcPhMr0-43" edge="1">
          <mxGeometry width="50" height="50" relative="1" as="geometry">
            <mxPoint x="3602.5" y="390" as="sourcePoint" />
            <mxPoint x="3652.5" y="340" as="targetPoint" />
          </mxGeometry>
        </mxCell>
        <mxCell id="h-zlI2FKjXPEG0V7gKLA-4" value="" style="shape=waypoint;sketch=0;fillStyle=solid;size=6;pointerEvents=1;points=[];fillColor=none;resizable=0;rotatable=0;perimeter=centerPerimeter;snapToPoint=1;fontSize=16;" parent="1" vertex="1">
          <mxGeometry x="3902.5" y="330" width="20" height="20" as="geometry" />
        </mxCell>
        <mxCell id="h-zlI2FKjXPEG0V7gKLA-5" value="" style="endArrow=none;html=1;rounded=0;fontSize=12;startSize=8;endSize=8;curved=1;entryX=0.25;entryY=1;entryDx=0;entryDy=0;exitX=0.468;exitY=0.029;exitDx=0;exitDy=0;exitPerimeter=0;" parent="1" source="Dim5QOcSXNg3E_LtALoV-3" target="X9Rjx0ZmzIJkDOcPhMr0-43" edge="1">
          <mxGeometry width="50" height="50" relative="1" as="geometry">
            <mxPoint x="3612.5" y="420" as="sourcePoint" />
            <mxPoint x="3662.5" y="370" as="targetPoint" />
          </mxGeometry>
        </mxCell>
        <mxCell id="h-zlI2FKjXPEG0V7gKLA-6" value="" style="shape=waypoint;sketch=0;fillStyle=solid;size=6;pointerEvents=1;points=[];fillColor=none;resizable=0;rotatable=0;perimeter=centerPerimeter;snapToPoint=1;fontSize=16;" parent="1" vertex="1">
          <mxGeometry x="3082.5" y="330" width="20" height="20" as="geometry" />
        </mxCell>
        <mxCell id="h-zlI2FKjXPEG0V7gKLA-7" value="" style="endArrow=none;html=1;rounded=0;fontSize=12;startSize=8;endSize=8;curved=1;entryX=0;entryY=1;entryDx=0;entryDy=0;exitX=0.496;exitY=0.075;exitDx=0;exitDy=0;exitPerimeter=0;" parent="1" source="Dim5QOcSXNg3E_LtALoV-5" target="X9Rjx0ZmzIJkDOcPhMr0-34" edge="1">
          <mxGeometry width="50" height="50" relative="1" as="geometry">
            <mxPoint x="3082.5" y="420" as="sourcePoint" />
            <mxPoint x="3132.5" y="370" as="targetPoint" />
          </mxGeometry>
        </mxCell>
        <mxCell id="h-zlI2FKjXPEG0V7gKLA-8" value="" style="endArrow=none;html=1;rounded=0;fontSize=12;startSize=8;endSize=8;curved=1;entryX=-0.018;entryY=0.491;entryDx=0;entryDy=0;entryPerimeter=0;exitX=1;exitY=0.5;exitDx=0;exitDy=0;" parent="1" source="X9Rjx0ZmzIJkDOcPhMr0-34" target="Dim5QOcSXNg3E_LtALoV-6" edge="1">
          <mxGeometry width="50" height="50" relative="1" as="geometry">
            <mxPoint x="3292.5" y="420" as="sourcePoint" />
            <mxPoint x="3342.5" y="370" as="targetPoint" />
          </mxGeometry>
        </mxCell>
        <mxCell id="h-zlI2FKjXPEG0V7gKLA-9" value="" style="endArrow=none;html=1;rounded=0;fontSize=12;startSize=8;endSize=8;curved=1;exitX=0.777;exitY=1;exitDx=0;exitDy=0;exitPerimeter=0;entryX=0.526;entryY=0.016;entryDx=0;entryDy=0;entryPerimeter=0;" parent="1" source="X9Rjx0ZmzIJkDOcPhMr0-34" target="Dim5QOcSXNg3E_LtALoV-7" edge="1">
          <mxGeometry width="50" height="50" relative="1" as="geometry">
            <mxPoint x="3282.5" y="420" as="sourcePoint" />
            <mxPoint x="3332.5" y="370" as="targetPoint" />
          </mxGeometry>
        </mxCell>
        <mxCell id="h-zlI2FKjXPEG0V7gKLA-10" value="" style="endArrow=none;html=1;rounded=0;fontSize=12;startSize=8;endSize=8;curved=1;entryX=0.75;entryY=1;entryDx=0;entryDy=0;" parent="1" source="h-zlI2FKjXPEG0V7gKLA-11" target="X9Rjx0ZmzIJkDOcPhMr0-74" edge="1">
          <mxGeometry width="50" height="50" relative="1" as="geometry">
            <mxPoint x="3292.5" y="660" as="sourcePoint" />
            <mxPoint x="3322.5" y="650" as="targetPoint" />
          </mxGeometry>
        </mxCell>
        <mxCell id="h-zlI2FKjXPEG0V7gKLA-11" value="" style="shape=waypoint;sketch=0;fillStyle=solid;size=6;pointerEvents=1;points=[];fillColor=none;resizable=0;rotatable=0;perimeter=centerPerimeter;snapToPoint=1;fontSize=16;" parent="1" vertex="1">
          <mxGeometry x="3282.5" y="650" width="20" height="20" as="geometry" />
        </mxCell>
        <mxCell id="h-zlI2FKjXPEG0V7gKLA-12" value="" style="endArrow=none;html=1;rounded=0;fontSize=12;startSize=8;endSize=8;curved=1;entryX=0.25;entryY=1;entryDx=0;entryDy=0;" parent="1" target="X9Rjx0ZmzIJkDOcPhMr0-53" edge="1">
          <mxGeometry width="50" height="50" relative="1" as="geometry">
            <mxPoint x="3622.5" y="680" as="sourcePoint" />
            <mxPoint x="3652.5" y="660" as="targetPoint" />
          </mxGeometry>
        </mxCell>
        <mxCell id="h-zlI2FKjXPEG0V7gKLA-13" value="" style="shape=waypoint;sketch=0;fillStyle=solid;size=6;pointerEvents=1;points=[];fillColor=none;resizable=0;rotatable=0;perimeter=centerPerimeter;snapToPoint=1;fontSize=16;" parent="1" vertex="1">
          <mxGeometry x="3612.5" y="670" width="20" height="20" as="geometry" />
        </mxCell>
        <mxCell id="h-zlI2FKjXPEG0V7gKLA-14" value="(0,N)" style="text;html=1;strokeColor=none;fillColor=none;align=center;verticalAlign=middle;whiteSpace=wrap;rounded=0;fontSize=16;" parent="1" vertex="1">
          <mxGeometry x="1940" y="387.5" width="60" height="30" as="geometry" />
        </mxCell>
        <mxCell id="h-zlI2FKjXPEG0V7gKLA-15" value="(0,N)" style="text;html=1;strokeColor=none;fillColor=none;align=center;verticalAlign=middle;whiteSpace=wrap;rounded=0;fontSize=16;" parent="1" vertex="1">
          <mxGeometry x="1545" y="397.5" width="60" height="30" as="geometry" />
        </mxCell>
        <mxCell id="h-zlI2FKjXPEG0V7gKLA-16" value="(0,N)" style="text;html=1;strokeColor=none;fillColor=none;align=center;verticalAlign=middle;whiteSpace=wrap;rounded=0;fontSize=16;" parent="1" vertex="1">
          <mxGeometry x="2200" y="390" width="60" height="30" as="geometry" />
        </mxCell>
        <mxCell id="h-zlI2FKjXPEG0V7gKLA-19" value="(1,N)" style="text;html=1;strokeColor=none;fillColor=none;align=center;verticalAlign=middle;whiteSpace=wrap;rounded=0;fontSize=16;" parent="1" vertex="1">
          <mxGeometry x="1110" y="690" width="60" height="30" as="geometry" />
        </mxCell>
        <mxCell id="h-zlI2FKjXPEG0V7gKLA-21" value="(1,N)" style="text;html=1;strokeColor=none;fillColor=none;align=center;verticalAlign=middle;whiteSpace=wrap;rounded=0;fontSize=16;" parent="1" vertex="1">
          <mxGeometry x="3437.5" y="60" width="60" height="30" as="geometry" />
        </mxCell>
        <mxCell id="h-zlI2FKjXPEG0V7gKLA-22" value="(1,N)" style="text;html=1;strokeColor=none;fillColor=none;align=center;verticalAlign=middle;whiteSpace=wrap;rounded=0;fontSize=16;" parent="1" vertex="1">
          <mxGeometry x="3152.5" y="375" width="60" height="30" as="geometry" />
        </mxCell>
        <mxCell id="h-zlI2FKjXPEG0V7gKLA-23" value="(1;N)" style="text;html=1;strokeColor=none;fillColor=none;align=center;verticalAlign=middle;whiteSpace=wrap;rounded=0;fontSize=16;" parent="1" vertex="1">
          <mxGeometry x="3677.5" y="380" width="60" height="30" as="geometry" />
        </mxCell>
        <mxCell id="h-zlI2FKjXPEG0V7gKLA-24" value="(1,N)" style="text;html=1;strokeColor=none;fillColor=none;align=center;verticalAlign=middle;whiteSpace=wrap;rounded=0;fontSize=16;" parent="1" vertex="1">
          <mxGeometry x="3152.5" y="640" width="60" height="30" as="geometry" />
        </mxCell>
        <mxCell id="h-zlI2FKjXPEG0V7gKLA-25" value="(1,N)" style="text;whiteSpace=wrap;html=1;fontSize=16;" parent="1" vertex="1">
          <mxGeometry x="3747.5" y="660" width="35" height="40" as="geometry" />
        </mxCell>
        <mxCell id="h-zlI2FKjXPEG0V7gKLA-26" value="&lt;span style=&quot;color: rgb(0, 0, 0); font-family: Helvetica; font-size: 16px; font-style: normal; font-variant-ligatures: normal; font-variant-caps: normal; font-weight: 400; letter-spacing: normal; orphans: 2; text-align: center; text-indent: 0px; text-transform: none; widows: 2; word-spacing: 0px; -webkit-text-stroke-width: 0px; background-color: rgb(251, 251, 251); text-decoration-thickness: initial; text-decoration-style: initial; text-decoration-color: initial; float: none; display: inline !important;&quot;&gt;(1,N)&lt;/span&gt;" style="text;whiteSpace=wrap;html=1;fontSize=16;" parent="1" vertex="1">
          <mxGeometry x="3442.5" y="770" width="35" height="40" as="geometry" />
        </mxCell>
        <mxCell id="VngaoLc78oNlXV_jMVAH-2" value="client_since" style="text;html=1;align=center;verticalAlign=middle;whiteSpace=wrap;rounded=0;fontSize=16;" parent="1" vertex="1">
          <mxGeometry x="1530" y="472.5" width="60" height="30" as="geometry" />
        </mxCell>
        <mxCell id="VngaoLc78oNlXV_jMVAH-3" value="" style="endArrow=none;html=1;rounded=0;fontSize=12;startSize=8;endSize=8;curved=1;exitX=1;exitY=1;exitDx=0;exitDy=0;entryX=0.5;entryY=0;entryDx=0;entryDy=0;" parent="1" source="X9Rjx0ZmzIJkDOcPhMr0-131" target="VngaoLc78oNlXV_jMVAH-2" edge="1">
          <mxGeometry width="50" height="50" relative="1" as="geometry">
            <mxPoint x="1690" y="492.5" as="sourcePoint" />
            <mxPoint x="1740" y="442.5" as="targetPoint" />
          </mxGeometry>
        </mxCell>
        <mxCell id="f4H1i3df-mybFZjiYUSQ-14" value="" style="rhombus;whiteSpace=wrap;html=1;" vertex="1" parent="1">
          <mxGeometry x="1660" y="400" width="80" height="80" as="geometry" />
        </mxCell>
        <mxCell id="f4H1i3df-mybFZjiYUSQ-15" value="" style="endArrow=none;html=1;rounded=0;exitX=1;exitY=0.5;exitDx=0;exitDy=0;entryX=0;entryY=0.5;entryDx=0;entryDy=0;" edge="1" parent="1" source="X9Rjx0ZmzIJkDOcPhMr0-131" target="f4H1i3df-mybFZjiYUSQ-14">
          <mxGeometry width="50" height="50" relative="1" as="geometry">
            <mxPoint x="1610" y="460" as="sourcePoint" />
            <mxPoint x="1660" y="410" as="targetPoint" />
          </mxGeometry>
        </mxCell>
        <mxCell id="f4H1i3df-mybFZjiYUSQ-19" value="" style="endArrow=none;html=1;rounded=0;entryX=0;entryY=0.5;entryDx=0;entryDy=0;" edge="1" parent="1" source="f4H1i3df-mybFZjiYUSQ-14" target="X9Rjx0ZmzIJkDOcPhMr0-139">
          <mxGeometry width="50" height="50" relative="1" as="geometry">
            <mxPoint x="1760" y="620" as="sourcePoint" />
            <mxPoint x="1810" y="570" as="targetPoint" />
          </mxGeometry>
        </mxCell>
        <mxCell id="f4H1i3df-mybFZjiYUSQ-20" value="" style="rhombus;whiteSpace=wrap;html=1;" vertex="1" parent="1">
          <mxGeometry x="2045" y="400" width="80" height="80" as="geometry" />
        </mxCell>
        <mxCell id="f4H1i3df-mybFZjiYUSQ-21" value="" style="endArrow=none;html=1;rounded=0;exitX=1;exitY=0.5;exitDx=0;exitDy=0;entryX=0;entryY=0.5;entryDx=0;entryDy=0;" edge="1" parent="1" source="X9Rjx0ZmzIJkDOcPhMr0-139" target="f4H1i3df-mybFZjiYUSQ-20">
          <mxGeometry width="50" height="50" relative="1" as="geometry">
            <mxPoint x="2020" y="400" as="sourcePoint" />
            <mxPoint x="2070" y="350" as="targetPoint" />
          </mxGeometry>
        </mxCell>
        <mxCell id="f4H1i3df-mybFZjiYUSQ-22" value="must" style="rhombus;whiteSpace=wrap;html=1;" vertex="1" parent="1">
          <mxGeometry x="1457.5" y="170" width="80" height="80" as="geometry" />
        </mxCell>
        <mxCell id="f4H1i3df-mybFZjiYUSQ-23" value="" style="endArrow=none;html=1;rounded=0;fontSize=12;startSize=8;endSize=8;curved=1;entryX=0;entryY=0.5;entryDx=0;entryDy=0;exitX=1;exitY=0.5;exitDx=0;exitDy=0;" edge="1" parent="1" source="f4H1i3df-mybFZjiYUSQ-24" target="f4H1i3df-mybFZjiYUSQ-22">
          <mxGeometry width="50" height="50" relative="1" as="geometry">
            <mxPoint x="1359.5" y="210" as="sourcePoint" />
            <mxPoint x="1399.5" y="190" as="targetPoint" />
          </mxGeometry>
        </mxCell>
        <mxCell id="f4H1i3df-mybFZjiYUSQ-24" value="payments" style="rounded=0;whiteSpace=wrap;html=1;" vertex="1" parent="1">
          <mxGeometry x="1219.5" y="180" width="120" height="60" as="geometry" />
        </mxCell>
        <mxCell id="f4H1i3df-mybFZjiYUSQ-25" value="payment_id" style="text;html=1;align=center;verticalAlign=middle;whiteSpace=wrap;rounded=0;fontSize=16;" vertex="1" parent="1">
          <mxGeometry x="1109.5" y="125" width="60" height="30" as="geometry" />
        </mxCell>
        <mxCell id="f4H1i3df-mybFZjiYUSQ-26" value="" style="endArrow=none;html=1;rounded=0;fontSize=12;startSize=8;endSize=8;curved=1;entryX=0;entryY=0;entryDx=0;entryDy=0;" edge="1" parent="1" source="f4H1i3df-mybFZjiYUSQ-28" target="f4H1i3df-mybFZjiYUSQ-24">
          <mxGeometry width="50" height="50" relative="1" as="geometry">
            <mxPoint x="1169.5" y="160" as="sourcePoint" />
            <mxPoint x="1199.5" y="190" as="targetPoint" />
          </mxGeometry>
        </mxCell>
        <mxCell id="f4H1i3df-mybFZjiYUSQ-27" value="" style="endArrow=none;html=1;rounded=0;fontSize=12;startSize=8;endSize=8;curved=1;entryDx=0;entryDy=0;" edge="1" parent="1" target="f4H1i3df-mybFZjiYUSQ-28">
          <mxGeometry width="50" height="50" relative="1" as="geometry">
            <mxPoint x="1169.5" y="160" as="sourcePoint" />
            <mxPoint x="1219.5" y="180" as="targetPoint" />
          </mxGeometry>
        </mxCell>
        <mxCell id="f4H1i3df-mybFZjiYUSQ-28" value="" style="shape=waypoint;sketch=0;fillStyle=solid;size=6;pointerEvents=1;points=[];fillColor=none;resizable=0;rotatable=0;perimeter=centerPerimeter;snapToPoint=1;" vertex="1" parent="1">
          <mxGeometry x="1162" y="150" width="20" height="20" as="geometry" />
        </mxCell>
        <mxCell id="f4H1i3df-mybFZjiYUSQ-29" value="amount" style="text;html=1;align=center;verticalAlign=middle;whiteSpace=wrap;rounded=0;fontSize=16;" vertex="1" parent="1">
          <mxGeometry x="1359.5" y="120" width="60" height="30" as="geometry" />
        </mxCell>
        <mxCell id="f4H1i3df-mybFZjiYUSQ-30" value="payment_descripition" style="text;html=1;align=center;verticalAlign=middle;whiteSpace=wrap;rounded=0;fontSize=16;" vertex="1" parent="1">
          <mxGeometry x="1154.5" y="268" width="60" height="30" as="geometry" />
        </mxCell>
        <mxCell id="f4H1i3df-mybFZjiYUSQ-31" value="" style="endArrow=none;html=1;rounded=0;fontSize=12;startSize=8;endSize=8;curved=1;entryX=0;entryY=1;entryDx=0;entryDy=0;exitX=0.5;exitY=0;exitDx=0;exitDy=0;" edge="1" parent="1" source="f4H1i3df-mybFZjiYUSQ-30" target="f4H1i3df-mybFZjiYUSQ-24">
          <mxGeometry width="50" height="50" relative="1" as="geometry">
            <mxPoint x="1139.5" y="280" as="sourcePoint" />
            <mxPoint x="1189.5" y="230" as="targetPoint" />
          </mxGeometry>
        </mxCell>
        <mxCell id="f4H1i3df-mybFZjiYUSQ-32" value="" style="endArrow=none;html=1;rounded=0;fontSize=12;startSize=8;endSize=8;curved=1;entryX=0.5;entryY=1;entryDx=0;entryDy=0;exitX=1;exitY=0;exitDx=0;exitDy=0;" edge="1" parent="1" source="f4H1i3df-mybFZjiYUSQ-24" target="f4H1i3df-mybFZjiYUSQ-29">
          <mxGeometry width="50" height="50" relative="1" as="geometry">
            <mxPoint x="1289.5" y="190" as="sourcePoint" />
            <mxPoint x="1389.5" y="170" as="targetPoint" />
          </mxGeometry>
        </mxCell>
        <mxCell id="f4H1i3df-mybFZjiYUSQ-33" value="" style="endArrow=none;html=1;rounded=0;entryX=0.5;entryY=1;entryDx=0;entryDy=0;exitX=0.5;exitY=0;exitDx=0;exitDy=0;" edge="1" parent="1" source="X9Rjx0ZmzIJkDOcPhMr0-131" target="f4H1i3df-mybFZjiYUSQ-22">
          <mxGeometry width="50" height="50" relative="1" as="geometry">
            <mxPoint x="1450" y="340" as="sourcePoint" />
            <mxPoint x="1500" y="290" as="targetPoint" />
          </mxGeometry>
        </mxCell>
        <mxCell id="f4H1i3df-mybFZjiYUSQ-34" value="" style="rhombus;whiteSpace=wrap;html=1;" vertex="1" parent="1">
          <mxGeometry x="1460" y="620" width="80" height="80" as="geometry" />
        </mxCell>
        <mxCell id="f4H1i3df-mybFZjiYUSQ-35" value="" style="endArrow=none;html=1;rounded=0;exitX=0.5;exitY=0;exitDx=0;exitDy=0;" edge="1" parent="1" source="X9Rjx0ZmzIJkDOcPhMr0-114" target="f4H1i3df-mybFZjiYUSQ-34">
          <mxGeometry width="50" height="50" relative="1" as="geometry">
            <mxPoint x="1460" y="770" as="sourcePoint" />
            <mxPoint x="1510" y="720" as="targetPoint" />
          </mxGeometry>
        </mxCell>
        <mxCell id="f4H1i3df-mybFZjiYUSQ-36" value="" style="endArrow=none;html=1;rounded=0;exitX=0.5;exitY=0;exitDx=0;exitDy=0;entryX=0.5;entryY=1;entryDx=0;entryDy=0;" edge="1" parent="1" source="f4H1i3df-mybFZjiYUSQ-34" target="X9Rjx0ZmzIJkDOcPhMr0-131">
          <mxGeometry width="50" height="50" relative="1" as="geometry">
            <mxPoint x="1420" y="600" as="sourcePoint" />
            <mxPoint x="1470" y="550" as="targetPoint" />
          </mxGeometry>
        </mxCell>
        <mxCell id="f4H1i3df-mybFZjiYUSQ-37" value="" style="rhombus;whiteSpace=wrap;html=1;" vertex="1" parent="1">
          <mxGeometry x="2220" y="590" width="80" height="80" as="geometry" />
        </mxCell>
        <mxCell id="f4H1i3df-mybFZjiYUSQ-38" value="" style="endArrow=none;html=1;rounded=0;entryX=0.5;entryY=1;entryDx=0;entryDy=0;exitX=0.5;exitY=0;exitDx=0;exitDy=0;" edge="1" parent="1" source="f4H1i3df-mybFZjiYUSQ-37" target="X9Rjx0ZmzIJkDOcPhMr0-147">
          <mxGeometry width="50" height="50" relative="1" as="geometry">
            <mxPoint x="2210" y="590" as="sourcePoint" />
            <mxPoint x="2260" y="540" as="targetPoint" />
          </mxGeometry>
        </mxCell>
        <mxCell id="f4H1i3df-mybFZjiYUSQ-39" value="" style="endArrow=none;html=1;rounded=0;entryX=0.5;entryY=1;entryDx=0;entryDy=0;exitX=0.5;exitY=0;exitDx=0;exitDy=0;" edge="1" parent="1" source="X9Rjx0ZmzIJkDOcPhMr0-102" target="f4H1i3df-mybFZjiYUSQ-37">
          <mxGeometry width="50" height="50" relative="1" as="geometry">
            <mxPoint x="2150" y="790" as="sourcePoint" />
            <mxPoint x="2200" y="740" as="targetPoint" />
          </mxGeometry>
        </mxCell>
        <mxCell id="f4H1i3df-mybFZjiYUSQ-40" value="" style="endArrow=none;html=1;rounded=0;exitX=1;exitY=0.5;exitDx=0;exitDy=0;entryX=0;entryY=0.5;entryDx=0;entryDy=0;" edge="1" parent="1" source="X9Rjx0ZmzIJkDOcPhMr0-114" target="X9Rjx0ZmzIJkDOcPhMr0-14">
          <mxGeometry width="50" height="50" relative="1" as="geometry">
            <mxPoint x="1630" y="870" as="sourcePoint" />
            <mxPoint x="1680" y="820" as="targetPoint" />
          </mxGeometry>
        </mxCell>
        <mxCell id="f4H1i3df-mybFZjiYUSQ-41" value="" style="endArrow=none;html=1;rounded=0;exitX=1;exitY=0.5;exitDx=0;exitDy=0;entryX=0;entryY=0.5;entryDx=0;entryDy=0;" edge="1" parent="1" source="X9Rjx0ZmzIJkDOcPhMr0-14" target="X9Rjx0ZmzIJkDOcPhMr0-102">
          <mxGeometry width="50" height="50" relative="1" as="geometry">
            <mxPoint x="1980" y="930" as="sourcePoint" />
            <mxPoint x="2030" y="880" as="targetPoint" />
          </mxGeometry>
        </mxCell>
      </root>
    </mxGraphModel>
  </diagram>
</mxfile>
